<svg width="98" height="98" viewBox="0 0 98 98" fill="none" xmlns="http://www.w3.org/2000/svg">
<circle cx="49" cy="49" r="49" fill="#F7EAE1"/>
<path d="M47 67C47 69.2133 45.2133 71 43 71C40.7866 71 39 69.2133 39 67C39 64.7867 40.7866 63 43 63C45.2133 63 47 64.7867 47 67ZM60.3333 63C58.12 63 56.3333 64.7867 56.3333 67C56.3333 69.2133 58.12 71 60.3333 71C62.5466 71 64.3333 69.2133 64.3333 67C64.3333 64.7867 62.5466 63 60.3333 63ZM72.28 37.48L66.9466 58.8133C66.8392 59.2481 66.5889 59.6341 66.2359 59.9097C65.883 60.1853 65.4478 60.3345 65 60.3333H38.3333C37.3733 60.3333 36.5466 59.64 36.36 58.68L31.32 31H27.6666C26.5733 31 25.6666 30.0933 25.6666 29C25.6666 27.9067 26.5733 27 27.6666 27H33C33.96 27 34.7866 27.6933 34.9733 28.6533L36.12 35H70.3333C70.6365 35.0013 70.9356 35.0711 71.208 35.2043C71.4804 35.3375 71.7192 35.5306 71.9065 35.7692C72.0937 36.0077 72.2246 36.2855 72.2892 36.5818C72.3539 36.8781 72.3507 37.1851 72.28 37.48ZM67.7733 39H36.84L39.9866 56.3333H63.4266L67.7733 39Z" fill="#FFAC72"/>
</svg>
