<svg width="98" height="98" viewBox="0 0 98 98" fill="none" xmlns="http://www.w3.org/2000/svg">
<circle cx="49" cy="49" r="49" fill="#F7EAE1"/>
<path d="M31.728 25.6667C30.1367 25.6667 28.6106 26.2989 27.4854 27.4241C26.3602 28.5493 25.728 30.0754 25.728 31.6667V66.3334C25.728 67.9247 26.3602 69.4508 27.4854 70.5761C28.6106 71.7013 30.1367 72.3334 31.728 72.3334H66.3947C67.986 72.3334 69.5121 71.7013 70.6373 70.5761C71.7626 69.4508 72.3947 67.9247 72.3947 66.3334V31.6667C72.3947 30.0754 71.7626 28.5493 70.6373 27.4241C69.5121 26.2989 67.986 25.6667 66.3947 25.6667H31.728ZM29.728 31.6667C29.728 31.1363 29.9387 30.6276 30.3138 30.2525C30.6889 29.8775 31.1976 29.6667 31.728 29.6667H66.3947C66.9251 29.6667 67.4338 29.8775 67.8089 30.2525C68.184 30.6276 68.3947 31.1363 68.3947 31.6667V39.8881H29.728V31.6667ZM29.728 43.8881H39.9494V68.3334H31.728C31.1976 68.3334 30.6889 68.1227 30.3138 67.7476C29.9387 67.3726 29.728 66.8638 29.728 66.3334V43.8881ZM43.9494 43.8881H68.3947V54.1094H43.9494V43.8881ZM43.9494 58.1094H68.3947V66.3334C68.3947 66.8638 68.184 67.3726 67.8089 67.7476C67.4338 68.1227 66.9251 68.3334 66.3947 68.3334H43.9494V58.1094Z" fill="#FFAC72"/>
</svg>
