<svg width="98" height="98" viewBox="0 0 98 98" fill="none" xmlns="http://www.w3.org/2000/svg">
<circle cx="49" cy="49" r="49" fill="#F7EAE1"/>
<path fill-rule="evenodd" clip-rule="evenodd" d="M71.8 33.76C73.04 34.856 73.156 36.752 72.06 38L49.06 64C48.7944 64.3003 48.4713 64.5444 48.1097 64.7177C47.7482 64.891 47.3556 64.9901 46.9551 65.0092C46.5546 65.0282 46.1544 64.9667 45.778 64.8284C45.4017 64.6901 45.0569 64.4778 44.764 64.204L29.764 50.204C29.187 49.6602 28.8487 48.91 28.8231 48.1175C28.7975 47.325 29.0867 46.5546 29.6275 45.9747C30.1683 45.3948 30.9166 45.0526 31.709 45.0229C32.5014 44.9931 33.2733 45.2783 33.856 45.816L46.616 57.696L67.576 34.016C67.8373 33.7204 68.1544 33.4792 68.5091 33.3063C68.8638 33.1334 69.2491 33.0322 69.6429 33.0084C70.0368 32.9846 70.4314 33.0388 70.8043 33.1677C71.1772 33.2967 71.521 33.498 71.816 33.76H71.8Z" fill="#FFAC72"/>
</svg>
