<svg width="98" height="98" viewBox="0 0 98 98" fill="none" xmlns="http://www.w3.org/2000/svg">
<circle cx="49" cy="49" r="49" fill="#F7EAE1"/>
<path d="M70.3333 73H65V66.0933L58.0933 73L54.3333 69.24L61.24 62.3333H54.3333V57H70.3333V73ZM31.6667 49C22.3333 49 17 50.8667 17 54.3333V75.6667C17 79.1333 24.5467 81 31.6667 81C38.7867 81 46.3333 79.1333 46.3333 75.6667V54.3333C46.3333 50.8667 41 49 31.6667 49ZM31.6667 51.6667C38.2933 51.6667 43.6667 53.4587 43.6667 55.6667C43.6667 57.8747 38.2933 59.6667 31.6667 59.6667C25.04 59.6667 19.6667 57.8747 19.6667 55.6667C19.6667 53.4587 25.04 51.6667 31.6667 51.6667ZM19.6667 70.968V68.152C23.4697 69.7119 27.558 70.455 31.6667 70.3333C35.7753 70.455 39.8637 69.7119 43.6667 68.152V71.056C39.8365 72.4983 35.7563 73.1592 31.6667 73C27.5716 73.124 23.4926 72.4333 19.6667 70.968ZM66.3333 17C57 17 51.6667 18.8667 51.6667 22.3333V43.6667C51.6667 47.1333 59.2133 49 66.3333 49C73.4533 49 81 47.1333 81 43.6667V22.3333C81 18.8667 75.6667 17 66.3333 17ZM66.3333 19.6667C72.96 19.6667 78.3333 21.4587 78.3333 23.6667C78.3333 25.8747 72.96 27.6667 66.3333 27.6667C59.7067 27.6667 54.3333 25.8747 54.3333 23.6667C54.3333 21.4587 59.7067 19.6667 66.3333 19.6667ZM54.3333 38.968V36.152C58.1363 37.7119 62.2247 38.455 66.3333 38.3333C70.442 38.455 74.5304 37.7119 78.3333 36.152V39.056C74.5031 40.4983 70.423 41.1592 66.3333 41C62.2382 41.124 58.1593 40.4333 54.3333 38.968Z" fill="#FFAC72"/>
</svg>
