<svg width="98" height="98" viewBox="0 0 98 98" fill="none" xmlns="http://www.w3.org/2000/svg">
<circle cx="49" cy="49" r="49" fill="#F7EAE1"/>
<path fill-rule="evenodd" clip-rule="evenodd" d="M50.5014 25.5333H47.4987L45.7787 32.4079L44.0534 32.9413C43.048 33.2511 42.0739 33.6546 41.144 34.1466L39.5467 34.9919L33.4667 31.3439L31.344 33.4693L34.992 39.5493L34.1467 41.1439C33.6538 42.0737 33.2494 43.0478 32.9387 44.0533L32.408 45.7786L25.5334 47.4986V50.5012L32.408 52.2213L32.9414 53.9466C33.2489 54.9564 33.6507 55.9261 34.1467 56.8559L34.992 58.4533L31.344 64.5333L33.4694 66.6559L39.5494 63.0079L41.144 63.8532C42.0738 64.3475 43.0436 64.7501 44.0534 65.0613L45.7787 65.5919L47.4987 72.4666H50.5014L52.2214 65.5919L53.9467 65.0586C54.9521 64.7488 55.9261 64.3452 56.856 63.8532L58.4534 63.0079L64.5334 66.6559L66.656 64.5306L63.008 58.4506L63.8534 56.8559C64.3476 55.9261 64.7503 54.9564 65.0614 53.9466L65.592 52.2213L72.4667 50.5012V47.4986L65.592 45.7786L65.0587 44.0533C64.7489 43.0479 64.3454 42.0738 63.8534 41.1439L63.008 39.5466L66.656 33.4666L64.5307 31.3439L58.4507 34.9919L56.856 34.1466C55.9262 33.6537 54.9522 33.2492 53.9467 32.9386L52.2214 32.4079L50.5014 25.5333ZM58.3547 31.3199L63.2427 28.3866C63.7524 28.0809 64.3496 27.9542 64.9395 28.0267C65.5294 28.0991 66.0782 28.3666 66.4987 28.7866L69.2134 31.5013C69.6334 31.9218 69.9008 32.4706 69.9733 33.0605C70.0457 33.6504 69.9191 34.2476 69.6134 34.7573L66.68 39.6452C67.2667 40.7475 67.7467 41.903 68.12 43.1119L73.648 44.4959C74.2247 44.6404 74.7365 44.9734 75.1023 45.442C75.468 45.9107 75.6667 46.4881 75.6667 47.0826V50.9172C75.6667 51.5117 75.468 52.0892 75.1023 52.5578C74.7365 53.0265 74.2247 53.3595 73.648 53.5039L68.12 54.8879C67.7467 56.0968 67.2667 57.2524 66.68 58.3546L69.6134 63.2426C69.9191 63.7523 70.0457 64.3495 69.9733 64.9394C69.9008 65.5293 69.6334 66.078 69.2134 66.4986L66.4987 69.2132C66.0782 69.6332 65.5294 69.9007 64.9395 69.9732C64.3496 70.0456 63.7524 69.9189 63.2427 69.6132L58.3547 66.6799C57.2525 67.2666 56.0969 67.7466 54.888 68.1199L53.504 73.6479C53.3596 74.2246 53.0266 74.7364 52.5579 75.1022C52.0893 75.4679 51.5118 75.6666 50.9174 75.6666H47.0827C46.4882 75.6666 45.9108 75.4679 45.4422 75.1022C44.9735 74.7364 44.6405 74.2246 44.496 73.6479L43.112 68.1199C41.9139 67.7497 40.7532 67.2675 39.6454 66.6799L34.7574 69.6132C34.2477 69.9189 33.6505 70.0456 33.0606 69.9732C32.4707 69.9007 31.9219 69.6332 31.5014 69.2132L28.7867 66.4986C28.3667 66.078 28.0993 65.5293 28.0268 64.9394C27.9543 64.3495 28.081 63.7523 28.3867 63.2426L31.32 58.3546C30.7324 57.2467 30.2503 56.0861 29.88 54.8879L24.352 53.5039C23.7758 53.3596 23.2643 53.027 22.8986 52.5589C22.5329 52.0907 22.334 51.5139 22.3334 50.9199V47.0852C22.3334 46.4908 22.532 45.9133 22.8978 45.4447C23.2635 44.976 23.7754 44.643 24.352 44.4986L29.88 43.1146C30.2534 41.9057 30.7334 40.7501 31.32 39.6479L28.3867 34.7599C28.081 34.2502 27.9543 33.653 28.0268 33.0631C28.0993 32.4732 28.3667 31.9245 28.7867 31.5039L31.5014 28.7866C31.9219 28.3666 32.4707 28.0991 33.0606 28.0267C33.6505 27.9542 34.2477 28.0809 34.7574 28.3866L39.6454 31.3199C40.7476 30.7333 41.9032 30.2533 43.112 29.8799L44.496 24.3519C44.6404 23.7757 44.973 23.2642 45.4411 22.8985C45.9092 22.5328 46.486 22.3339 47.08 22.3333H50.9147C51.5092 22.3333 52.0866 22.5319 52.5553 22.8977C53.0239 23.2634 53.3569 23.7753 53.5014 24.3519L54.8854 29.8799C56.0943 30.2533 57.2498 30.7333 58.352 31.3199H58.3547ZM49 56.4666C50.9803 56.4666 52.8795 55.6799 54.2798 54.2796C55.68 52.8794 56.4667 50.9802 56.4667 48.9999C56.4667 47.0196 55.68 45.1205 54.2798 43.7202C52.8795 42.3199 50.9803 41.5333 49 41.5333C47.0198 41.5333 45.1206 42.3199 43.7203 43.7202C42.32 45.1205 41.5334 47.0196 41.5334 48.9999C41.5334 50.9802 42.32 52.8794 43.7203 54.2796C45.1206 55.6799 47.0198 56.4666 49 56.4666ZM49 59.6666C46.1711 59.6666 43.458 58.5428 41.4576 56.5424C39.4572 54.542 38.3334 51.8289 38.3334 48.9999C38.3334 46.1709 39.4572 43.4578 41.4576 41.4574C43.458 39.4571 46.1711 38.3333 49 38.3333C51.829 38.3333 54.5421 39.4571 56.5425 41.4574C58.5429 43.4578 59.6667 46.1709 59.6667 48.9999C59.6667 51.8289 58.5429 54.542 56.5425 56.5424C54.5421 58.5428 51.829 59.6666 49 59.6666Z" fill="#FFAC72"/>
</svg>
