<svg width="98" height="98" viewBox="0 0 98 98" fill="none" xmlns="http://www.w3.org/2000/svg">
<circle cx="49" cy="49" r="49" fill="#F7EAE1"/>
<path fill-rule="evenodd" clip-rule="evenodd" d="M32.8678 42.1094C33.4545 42.267 33.9546 42.651 34.2583 43.1771C34.5621 43.7031 34.6446 44.3283 34.4877 44.9151C33.7054 47.8347 33.8065 50.9206 34.7781 53.7827C35.7497 56.6448 37.5483 59.1545 39.9463 60.9944C42.3443 62.8343 45.2341 63.9218 48.2501 64.1193C51.2662 64.3167 54.2731 63.6154 56.8906 62.1039C57.1515 61.9534 57.4394 61.8557 57.7381 61.8165C58.0367 61.7773 58.3401 61.7973 58.631 61.8753C58.9219 61.9534 59.1946 62.088 59.4335 62.2714C59.6724 62.4548 59.8728 62.6835 60.0233 62.9444C60.1738 63.2053 60.2715 63.4933 60.3107 63.7919C60.3499 64.0905 60.3299 64.3939 60.2519 64.6848C60.1738 64.9757 60.0393 65.2484 59.8558 65.4873C59.6724 65.7262 59.4437 65.9266 59.1828 66.0771C55.7798 68.0408 51.8709 68.9515 47.9504 68.694C44.0299 68.4365 40.2737 67.0225 37.1566 64.6307C34.0396 62.2389 31.7016 58.9766 30.4383 55.2563C29.175 51.5359 29.043 47.5246 30.0591 43.7293C30.1371 43.4384 30.2716 43.1658 30.455 42.927C30.6384 42.6882 30.867 42.4879 31.1279 42.3374C31.3887 42.187 31.6766 42.0895 31.9752 42.0503C32.2737 42.0112 32.577 42.0313 32.8678 42.1094ZM39.3167 31.6629C42.7196 29.6976 46.6289 28.7857 50.5501 29.0425C54.4713 29.2992 58.2283 30.7132 61.3459 33.1054C64.4635 35.4976 66.8015 38.7607 68.0644 42.4819C69.3272 46.2031 69.4581 50.2152 68.4405 54.0107C68.2832 54.5984 67.8989 55.0996 67.3722 55.4039C66.8454 55.7083 66.2194 55.7909 65.6317 55.6337C65.044 55.4764 64.5429 55.0921 64.2385 54.5654C63.9342 54.0386 63.8515 53.4126 64.0088 52.8249C64.7889 49.906 64.6865 46.8214 63.7145 43.9607C62.7424 41.1 60.9444 38.5915 58.5474 36.7522C56.1505 34.9129 53.2622 33.8252 50.2474 33.6265C47.2326 33.4279 44.2265 34.1272 41.6089 35.6361C41.0821 35.9401 40.456 36.0223 39.8685 35.8647C39.281 35.707 38.7802 35.3225 38.4762 34.7956C38.1722 34.2687 38.09 33.6427 38.2476 33.0552C38.4053 32.4677 38.7898 31.9668 39.3167 31.6629Z" fill="#FFAC72"/>
<path fill-rule="evenodd" clip-rule="evenodd" d="M30.0561 41.1374C30.4859 40.7082 31.0685 40.467 31.6759 40.467C32.2834 40.467 32.866 40.7082 33.2958 41.1374L40.9366 48.7782C41.1618 48.9881 41.3425 49.2412 41.4678 49.5223C41.593 49.8035 41.6604 50.1071 41.6658 50.4148C41.6713 50.7226 41.6147 51.0283 41.4994 51.3138C41.3841 51.5992 41.2125 51.8585 40.9948 52.0761C40.7771 52.2938 40.5179 52.4654 40.2324 52.5807C39.947 52.696 39.6413 52.7526 39.3335 52.7472C39.0257 52.7417 38.7222 52.6744 38.441 52.5491C38.1598 52.4238 37.9068 52.2432 37.6969 52.018L31.6759 45.997L25.655 52.018C25.2204 52.4229 24.6457 52.6433 24.0519 52.6328C23.458 52.6223 22.8914 52.3818 22.4714 51.9618C22.0515 51.5418 21.8109 50.9752 21.8004 50.3814C21.7899 49.7875 22.0104 49.2128 22.4153 48.7782L30.0561 41.1374ZM57.5631 45.7219C57.9929 45.2926 58.5755 45.0515 59.1829 45.0515C59.7904 45.0515 60.373 45.2926 60.8028 45.7219L66.8237 51.7429L72.8447 45.7219C73.0546 45.4967 73.3076 45.3161 73.5888 45.1908C73.87 45.0655 74.1735 44.9981 74.4813 44.9927C74.7891 44.9873 75.0948 45.0439 75.3802 45.1592C75.6657 45.2745 75.9249 45.4461 76.1426 45.6637C76.3603 45.8814 76.5319 46.1407 76.6472 46.4261C76.7624 46.7115 76.8191 47.0172 76.8136 47.325C76.8082 47.6328 76.7408 47.9363 76.6156 48.2175C76.4903 48.4987 76.3096 48.7518 76.0844 48.9616L68.4436 56.6024C68.0138 57.0317 67.4312 57.2728 66.8237 57.2728C66.2163 57.2728 65.6337 57.0317 65.2039 56.6024L57.5631 48.9616C57.1338 48.5318 56.8927 47.9492 56.8927 47.3418C56.8927 46.7343 57.1338 46.1517 57.5631 45.7219Z" fill="#FFAC72"/>
</svg>
