<svg width="98" height="98" viewBox="0 0 98 98" fill="none" xmlns="http://www.w3.org/2000/svg">
<circle cx="49" cy="49" r="49" fill="#F7EAE1"/>
<path d="M33.108 23.8172C33.6893 24.0825 34.068 24.6572 34.0827 25.2959C34.136 27.6719 34.976 29.0119 35.9427 30.3505L36.212 30.7212C37.1453 31.9892 38.3333 33.6039 38.3333 35.9972C38.3334 37.1417 38.0656 38.2702 37.5514 39.2926C37.0372 40.315 36.2908 41.2029 35.372 41.8852C36.2213 42.6359 36.8147 43.5785 37.232 44.5585C38.1653 46.7572 38.3333 49.4452 38.3333 51.5959C38.3333 55.1159 37.7893 60.5025 36.792 65.0359C36.2947 67.2932 35.6653 69.4359 34.8853 71.0532C34.4987 71.8572 34.0307 72.6225 33.4547 73.2079C32.8747 73.7972 32.052 74.3332 31.0053 74.3332C29.9587 74.3332 29.136 73.7985 28.556 73.2092C27.98 72.6225 27.512 71.8585 27.124 71.0545C26.3427 69.4372 25.7107 67.2945 25.2133 65.0372C24.2133 60.5039 23.6667 55.1172 23.6667 51.5972C23.6667 49.4439 23.8373 46.7559 24.7747 44.5572C25.192 43.5772 25.7853 42.6372 26.6333 41.8892C25.7128 41.2069 24.965 40.3185 24.4498 39.295C23.9346 38.2716 23.6664 37.1417 23.6667 35.9959C23.6667 34.2412 23.8907 32.5572 25.0787 30.5959C26.2067 28.7319 28.1547 26.7039 31.352 24.0505C31.5932 23.8505 31.8858 23.7225 32.1964 23.6813C32.507 23.64 32.823 23.6871 33.108 23.8172ZM27.9293 32.3239C27.156 33.5985 27 34.6239 27 35.9972C27 37.0581 27.4214 38.0755 28.1716 38.8256C28.9217 39.5758 29.9391 39.9972 31 39.9972C32.0609 39.9972 33.0783 39.5758 33.8284 38.8256C34.5786 38.0755 35 37.0581 35 35.9972C35 34.7345 34.452 33.9772 33.4453 32.5865L33.2387 32.2999C32.5227 31.3065 31.744 30.1372 31.252 28.5559C29.5427 30.1305 28.5347 31.3239 27.9293 32.3225M27.8413 45.8625C27.184 47.4025 27 49.5132 27 51.5959C27 54.8639 27.5187 60.0119 28.468 64.3159C28.9453 66.4785 29.5107 68.3292 30.1253 69.6025C30.4347 70.2425 30.7147 70.6479 30.9333 70.8692C30.96 70.8968 30.984 70.9199 31.0053 70.9385C31.0267 70.9208 31.0507 70.8981 31.0773 70.8705C31.2947 70.6479 31.5747 70.2439 31.8827 69.6039C32.496 68.3305 33.0613 66.4799 33.536 64.3172C34.484 60.0119 35 54.8639 35 51.5945C35 49.5105 34.8187 47.4012 34.164 45.8612C33.8467 45.1145 33.452 44.5852 32.988 44.2385C32.5427 43.9065 31.9267 43.6652 31.0053 43.6652C30.084 43.6652 29.4667 43.9065 29.0187 44.2385C28.5547 44.5852 28.1587 45.1185 27.8413 45.8625ZM45 29.6665C43.1158 29.6652 41.2551 30.0843 39.5533 30.8932C39.1889 30.2848 38.79 29.6976 38.3587 29.1345L38.1053 28.7919C37.9449 28.5727 37.7907 28.349 37.6427 28.1212C39.9158 26.9427 42.4395 26.3294 45 26.3332C53.3867 26.3332 60.2667 32.7865 60.9453 40.9999H66C68.2101 40.9999 70.3298 41.8779 71.8926 43.4407C73.4554 45.0035 74.3333 47.1231 74.3333 49.3332V63.3332C74.3333 65.5433 73.4554 67.663 71.8926 69.2258C70.3298 70.7886 68.2101 71.6665 66 71.6665H52C49.7899 71.6665 47.6703 70.7886 46.1074 69.2258C44.5446 67.663 43.6667 65.5433 43.6667 63.3332V58.2785C42.6426 58.1939 41.629 58.0109 40.64 57.7319C40.7594 56.5996 40.8518 55.4646 40.9173 54.3279C41.8082 54.6314 42.7305 54.8335 43.6667 54.9305V49.3332C43.6667 47.1231 44.5446 45.0035 46.1074 43.4407C47.6703 41.8779 49.7899 40.9999 52 40.9999H57.5973C56.9307 34.6305 51.5453 29.6665 45 29.6665ZM66 44.3332H60.876C60.4308 47.858 58.8257 51.1345 56.3135 53.6467C53.8013 56.1589 50.5248 57.764 47 58.2092V63.3332C47 64.6593 47.5268 65.9311 48.4645 66.8687C49.4022 67.8064 50.6739 68.3332 52 68.3332H66C67.3261 68.3332 68.5979 67.8064 69.5355 66.8687C70.4732 65.9311 71 64.6593 71 63.3332V49.3332C71 48.0071 70.4732 46.7354 69.5355 45.7977C68.5979 44.86 67.3261 44.3332 66 44.3332ZM47 54.8425C49.6348 54.4195 52.0689 53.176 53.9558 51.289C55.8427 49.4021 57.0863 46.968 57.5093 44.3332H52C50.6739 44.3332 49.4022 44.86 48.4645 45.7977C47.5268 46.7354 47 48.0071 47 49.3332V54.8425Z" fill="#FFAC72"/>
</svg>
