<svg width="98" height="98" viewBox="0 0 98 98" fill="none" xmlns="http://www.w3.org/2000/svg">
<path d="M22.7333 61.7466H26.9199C27.0104 61.7475 27.0981 61.7156 27.1667 61.6567C27.2354 61.5979 27.2804 61.5161 27.2933 61.4266L28.2266 56.5733H31.4799C32.8418 56.6065 34.2004 56.4265 35.5066 56.0399C36.5644 55.6891 37.5302 55.106 38.3333 54.3333C39.0532 53.6846 39.6574 52.9181 40.1199 52.0666C40.5778 51.2335 40.9017 50.3336 41.0799 49.3999C41.3633 48.4215 41.4119 47.39 41.222 46.3892C41.032 45.3884 40.6088 44.4465 39.9866 43.6399C39.2658 42.9074 38.3933 42.3417 37.4304 41.9823C36.4676 41.623 35.4378 41.4788 34.4133 41.5599H26.4133C26.3173 41.5642 26.2256 41.6008 26.153 41.6637C26.0804 41.7267 26.0312 41.8122 26.0133 41.9066L22.3333 61.2666C22.2947 61.3789 22.2947 61.5009 22.3333 61.6133C22.3842 61.6662 22.4472 61.706 22.5168 61.7293C22.5865 61.7525 22.6608 61.7584 22.7333 61.7466ZM30.3333 45.3199H32.9999C33.5073 45.2518 34.0231 45.285 34.5175 45.4178C35.0119 45.5505 35.475 45.7801 35.8799 46.0933C36.3333 46.5733 36.4133 47.4799 36.1733 48.7599C36.0419 49.9058 35.5023 50.966 34.6533 51.7466C33.5971 52.4153 32.3528 52.724 31.1066 52.6266H28.9733L30.3333 45.3199ZM56.4666 42.7866C55.0229 41.7252 53.2354 41.2403 51.4533 41.4266H48.2799L49.1599 36.7333C49.1859 36.6792 49.1994 36.6199 49.1994 36.5599C49.1994 36.4999 49.1859 36.4407 49.1599 36.3866C49.0652 36.3519 48.9613 36.3519 48.8666 36.3866H44.6799C44.5895 36.3857 44.5018 36.4176 44.4332 36.4765C44.3645 36.5353 44.3195 36.6171 44.3066 36.7066L40.6266 56.0933C40.6009 56.1427 40.5875 56.1976 40.5875 56.2533C40.5875 56.309 40.6009 56.3638 40.6266 56.4133C40.6581 56.4625 40.7014 56.503 40.7527 56.5309C40.804 56.5589 40.8615 56.5735 40.9199 56.5733H45.0266C45.1212 56.5735 45.2123 56.5379 45.2816 56.4735C45.3509 56.4092 45.3932 56.3209 45.3999 56.2266L47.4533 45.3733H50.4133C51.6133 45.3733 52.0399 45.6399 52.1733 45.7999C52.2833 46.0617 52.34 46.3427 52.34 46.6266C52.34 46.9105 52.2833 47.1915 52.1733 47.4533L50.5466 56.0933C50.5209 56.1427 50.5075 56.1976 50.5075 56.2533C50.5075 56.309 50.5209 56.3638 50.5466 56.4133C50.5797 56.4609 50.6235 56.5001 50.6744 56.5279C50.7253 56.5557 50.782 56.5712 50.8399 56.5733H54.9999C55.0959 56.5689 55.1876 56.5324 55.2602 56.4695C55.3328 56.4065 55.382 56.321 55.3999 56.2266L57.1066 47.1599C57.382 46.4369 57.4677 45.6555 57.3557 44.89C57.2437 44.1245 56.9376 43.4004 56.4666 42.7866ZM68.5199 41.4266H60.1733C60.1242 41.423 60.0749 41.4291 60.0282 41.4445C59.9816 41.46 59.9384 41.4846 59.9012 41.5168C59.864 41.549 59.8336 41.5882 59.8117 41.6323C59.7897 41.6763 59.7767 41.7242 59.7733 41.7733L55.8799 61.2666C55.8557 61.3212 55.8431 61.3802 55.8431 61.4399C55.8431 61.4996 55.8557 61.5587 55.8799 61.6133C55.9158 61.656 55.9607 61.6901 56.0115 61.7132C56.0622 61.7363 56.1175 61.7477 56.1733 61.7466H60.5199C60.6148 61.7543 60.7091 61.7255 60.7835 61.666C60.8578 61.6065 60.9067 61.5209 60.9199 61.4266L61.9066 56.5733H65.2933C66.6987 56.6034 68.1008 56.4236 69.4533 56.0399C70.6176 55.716 71.6934 55.1325 72.5999 54.3333C73.3447 53.6876 73.9757 52.9214 74.4666 52.0666C74.9298 51.2333 75.2625 50.334 75.4533 49.3999C75.7439 48.4206 75.7939 47.3855 75.5989 46.3827C75.4039 45.3799 74.9698 44.439 74.3333 43.6399C73.5803 42.8748 72.6713 42.281 71.6681 41.8991C70.6649 41.5171 69.5911 41.356 68.5199 41.4266ZM70.1733 48.8133C70.0138 49.968 69.4462 51.0274 68.5733 51.7999C67.479 52.4717 66.2001 52.7797 64.9199 52.6799H62.7866L64.2266 45.3199H66.8933C67.9592 45.1893 69.0353 45.4654 69.9066 46.0933C70.3333 46.5733 70.3333 47.4799 70.1733 48.8133Z" fill="#FFAC72"/>
<circle cx="49" cy="49" r="47" stroke="#FFAC72" stroke-width="4"/>
</svg>
