<svg width="98" height="98" viewBox="0 0 98 98" fill="none" xmlns="http://www.w3.org/2000/svg">
<path d="M25 44.4286C25.0005 40.6729 26.2343 37.0213 28.5119 34.035C30.7894 31.0488 33.9846 28.893 37.6064 27.8992C41.2282 26.9054 45.0762 27.1284 48.5589 28.534C52.0416 29.9397 54.9664 32.4501 56.8836 35.6796C58.8009 38.909 59.6046 42.6787 59.1711 46.4093C58.7377 50.1399 57.0912 53.6249 54.4846 56.3288C51.878 59.0326 48.4556 60.8057 44.7434 61.3754C41.0312 61.9451 37.2346 61.28 33.9371 59.4823C33.5495 59.2705 33.095 59.2164 32.6685 59.3315L25.24 61.32L27.2331 53.8869C27.3469 53.4618 27.2929 53.0092 27.0822 52.6229C25.7112 50.1096 24.9951 47.2915 25 44.4286ZM42.1428 23.8572C38.6344 23.8565 35.1842 24.7532 32.12 26.4619C29.0558 28.1706 26.4795 30.6346 24.6361 33.6196C22.7927 36.6047 21.7433 40.0116 21.5877 43.5165C21.4322 47.0215 22.1756 50.508 23.7474 53.6446L21.672 61.3909C21.5428 61.875 21.5432 62.3845 21.6731 62.8684C21.8031 63.3523 22.0579 63.7935 22.4122 64.1478C22.7665 64.5021 23.2077 64.7569 23.6916 64.8869C24.1755 65.0168 24.685 65.0172 25.1691 64.888L32.9108 62.8172C35.6854 64.2087 38.7389 64.9542 41.8426 64.998C44.9462 65.0418 48.0196 64.3826 50.8323 63.07C53.6451 61.7573 56.1243 59.8252 58.0843 57.4183C60.0443 55.0114 61.4342 52.1922 62.1499 49.1719C62.8656 46.1516 62.8885 43.0084 62.217 39.978C61.5454 36.9475 60.1968 34.1083 58.2722 31.6731C56.3475 29.2379 53.8967 27.2697 51.1035 25.9162C48.3102 24.5626 45.2468 23.8587 42.1428 23.8572ZM55.8571 74.1429C52.9486 74.146 50.0727 73.531 47.4199 72.3386C44.7672 71.1462 42.3981 69.4036 40.4697 67.2263C42.0775 67.3447 43.6934 67.2926 45.2902 67.0709C48.304 69.4365 52.0258 70.7198 55.8571 70.7143C58.7245 70.719 61.5467 70.0004 64.0628 68.6252C64.4504 68.4133 64.9049 68.3593 65.3314 68.4743L72.76 70.4629L70.7668 63.0298C70.653 62.6047 70.707 62.1521 70.9177 61.7657C72.285 59.251 73.0009 56.4339 73 53.5715C73.0008 50.528 72.1914 47.5392 70.6549 44.912C69.1184 42.2849 66.9102 40.1142 64.2571 38.6229C63.8465 37.0626 63.2719 35.5502 62.5428 34.1109C65.3169 35.0647 67.855 36.6005 69.987 38.6154C72.1191 40.6303 73.7957 43.0777 74.9046 45.7935C76.0135 48.5093 76.529 51.4308 76.4165 54.3621C76.304 57.2935 75.5662 60.1669 74.2525 62.7898L76.328 70.5338C76.4573 71.0181 76.457 71.5279 76.3269 72.012C76.1969 72.4962 75.9418 72.9376 75.5872 73.292C75.2326 73.6463 74.7911 73.9011 74.3068 74.0308C73.8226 74.1605 73.3128 74.1606 72.8285 74.0309L65.0891 71.96C62.2239 73.397 59.0625 74.1445 55.8571 74.1429Z" fill="#FFAC72"/>
<circle cx="49" cy="49" r="47" stroke="#FFAC72" stroke-width="4"/>
</svg>
