<svg width="98" height="98" viewBox="0 0 98 98" fill="none" xmlns="http://www.w3.org/2000/svg">
<path d="M49.342 54.4001C48.38 54.8421 47.326 55.4181 45.216 56.5761C44.416 57.0261 43.58 57.4761 42.802 57.9001C42.748 57.8461 42.692 57.7781 42.638 57.7221C38.464 53.2621 30.744 50.1121 31.072 44.1221C31.194 41.9401 31.944 36.2121 45.898 29.2561C57.382 23.5961 66.52 25.1641 68.098 28.6421C70.366 33.6001 63.2 42.8261 51.34 44.1641C50.0274 44.4302 48.6718 44.398 47.3733 44.0698C46.0748 43.7416 44.8666 43.1259 43.838 42.2681C43.21 41.5861 43.116 41.5461 42.884 41.6821C42.502 41.8821 42.748 42.5001 42.884 42.8541C43.3364 43.6732 43.9484 44.3933 44.6839 44.9718C45.4194 45.5502 46.2634 45.9754 47.166 46.2221C51.8332 47.2309 56.6994 46.7489 61.078 44.8441C68.266 42.0621 73.878 34.3281 72.234 27.8441C70.584 21.2701 59.672 19.1021 49.348 22.7701C42.8826 24.9489 36.9091 28.3787 31.768 32.8641C26.08 38.1841 25.18 42.8081 25.548 44.7441C26.872 51.6181 36.348 56.0921 40.148 59.4061C39.9507 59.5128 39.778 59.6081 39.63 59.6921C37.734 60.6341 30.506 64.4121 28.704 68.4081C26.658 72.9361 29.032 76.1821 30.6 76.6181C32.963 77.1847 35.444 76.9989 37.6962 76.0867C39.9484 75.1745 41.8594 73.5814 43.162 71.5301C44.2686 69.8294 44.948 67.8867 45.1427 65.8671C45.3373 63.8475 45.0414 61.8108 44.28 59.9301C44.7291 59.5715 45.2082 59.2524 45.712 58.9761C46.68 58.4041 47.602 57.8401 48.42 57.4041C51.2213 56.0938 54.2774 55.4184 57.37 55.4261C63.862 56.1901 65.144 60.2401 64.898 61.9461C64.7826 62.5512 64.539 63.1247 64.1837 63.628C63.8284 64.1313 63.3696 64.5527 62.838 64.8641C62.388 65.1501 62.238 65.2461 62.278 65.4501C62.332 65.7501 62.55 65.7361 62.932 65.6821C63.9074 65.3738 64.7667 64.7777 65.3971 63.9721C66.0275 63.1665 66.3994 62.189 66.464 61.1681C66.664 57.1681 62.85 52.7801 56.098 52.8201C54.0765 52.826 52.0754 53.2247 50.206 53.9941C49.906 54.1181 49.6147 54.2514 49.332 54.3941L49.342 54.4001ZM39.692 70.0781C37.536 72.4241 34.536 73.3101 33.24 72.5601C31.84 71.7601 32.394 68.2901 35.04 65.8081C36.6058 64.3945 38.2998 63.1297 40.1 62.0301C40.414 61.8301 40.878 61.5661 41.436 61.2301L41.586 61.1481L41.914 60.9481C42.3855 62.5303 42.4282 64.2094 42.0378 65.8136C41.6474 67.4178 40.8379 68.8895 39.692 70.0781Z" fill="#FFAC72"/>
<circle cx="49" cy="49" r="47" stroke="#FFAC72" stroke-width="4"/>
</svg>
