<svg width="98" height="98" viewBox="0 0 98 98" fill="none" xmlns="http://www.w3.org/2000/svg">
<path d="M31.9066 26.0933L35.6666 29.8533L27.1866 38.3333L35.6666 46.8133L31.9066 50.5999L19.6666 38.3333L31.9066 26.0933ZM47.4266 26.0933L59.6666 38.3333L47.4266 50.5999L43.6666 46.8133L52.1466 38.3333L43.6666 29.8533L47.4266 26.0933ZM75.6666 32.9999V64.9999C75.6666 67.9599 73.2933 70.3333 70.3333 70.3333H27.6666C26.2521 70.3333 24.8956 69.7714 23.8954 68.7712C22.8952 67.771 22.3333 66.4144 22.3333 64.9999V54.3333H27.6666V64.9999H70.3333V32.9999H62.4133V27.6666H70.3333C73.2933 27.6666 75.6666 30.0399 75.6666 32.9999Z" fill="#FFAC72"/>
<circle cx="49" cy="49" r="47" stroke="#FFAC72" stroke-width="4"/>
</svg>
