<svg width="98" height="98" viewBox="0 0 98 98" fill="none" xmlns="http://www.w3.org/2000/svg">
<path d="M70.3334 27.6667L65.0001 66.3334L49.0001 71.6667L33.0001 66.3334L27.6667 27.6667H70.3334Z" stroke="#FFAC72" stroke-width="5.33333" stroke-linecap="round" stroke-linejoin="round"/>
<path d="M37 38.3335H45V59.6668L39.6667 57.0002M61 38.3335H54.3333C53.9797 38.3335 53.6406 38.474 53.3905 38.724C53.1405 38.9741 53 39.3132 53 39.6668V47.6668C53 48.0205 53.1405 48.3596 53.3905 48.6096C53.6406 48.8597 53.9797 49.0002 54.3333 49.0002H58.128C58.3189 49.0002 58.5075 49.0412 58.6811 49.1204C58.8548 49.1996 59.0094 49.3151 59.1345 49.4592C59.2596 49.6033 59.3524 49.7726 59.4065 49.9557C59.4606 50.1387 59.4747 50.3312 59.448 50.5202L58.3333 58.3335L53 59.6668" stroke="#FFAC72" stroke-width="5.33333" stroke-linecap="round" stroke-linejoin="round"/>
<circle cx="49" cy="49" r="47" stroke="#FFAC72" stroke-width="4"/>
</svg>
