<svg width="98" height="98" viewBox="0 0 98 98" fill="none" xmlns="http://www.w3.org/2000/svg">
<path d="M23.4 29.7999C23.4 28.1025 24.0743 26.4747 25.2745 25.2744C26.4748 24.0742 28.1026 23.3999 29.8 23.3999H68.2C69.8974 23.3999 71.5253 24.0742 72.7255 25.2744C73.9257 26.4747 74.6 28.1025 74.6 29.7999V58.5999C74.6 60.2973 73.9257 61.9252 72.7255 63.1254C71.5253 64.3256 69.8974 64.9999 68.2 64.9999H55.4V68.1999C55.4 69.0486 55.7372 69.8625 56.3373 70.4626C56.9374 71.0628 57.7513 71.3999 58.6 71.3999H60.2C60.6244 71.3999 61.0313 71.5685 61.3314 71.8685C61.6315 72.1686 61.8 72.5756 61.8 72.9999C61.8 73.4242 61.6315 73.8312 61.3314 74.1313C61.0313 74.4313 60.6244 74.5999 60.2 74.5999H37.8C37.3757 74.5999 36.9687 74.4313 36.6687 74.1313C36.3686 73.8312 36.2 73.4242 36.2 72.9999C36.2 72.5756 36.3686 72.1686 36.6687 71.8685C36.9687 71.5685 37.3757 71.3999 37.8 71.3999H39.4C40.2487 71.3999 41.0626 71.0628 41.6628 70.4626C42.2629 69.8625 42.6 69.0486 42.6 68.1999V64.9999H29.8C28.1026 64.9999 26.4748 64.3256 25.2745 63.1254C24.0743 61.9252 23.4 60.2973 23.4 58.5999V29.7999ZM26.6 55.3999V58.5999C26.6 59.4486 26.9372 60.2625 27.5373 60.8626C28.1374 61.4628 28.9513 61.7999 29.8 61.7999H68.2C69.0487 61.7999 69.8627 61.4628 70.4628 60.8626C71.0629 60.2625 71.4 59.4486 71.4 58.5999V55.3999H26.6ZM71.4 52.1999V29.7999C71.4 28.9512 71.0629 28.1373 70.4628 27.5372C69.8627 26.937 69.0487 26.5999 68.2 26.5999H29.8C28.9513 26.5999 28.1374 26.937 27.5373 27.5372C26.9372 28.1373 26.6 28.9512 26.6 29.7999V52.1999H71.4ZM53.0576 71.3999C52.4958 70.427 52.2001 69.3234 52.2 68.1999V64.9999H45.8V68.1999C45.8 69.3647 45.4896 70.4591 44.9424 71.3999H53.0576Z" fill="#FFAC72"/>
<circle cx="49" cy="49" r="47" stroke="#FFAC72" stroke-width="4"/>
</svg>
