<svg width="98" height="98" viewBox="0 0 98 98" fill="none" xmlns="http://www.w3.org/2000/svg">
<path fill-rule="evenodd" clip-rule="evenodd" d="M41.2532 58.3333H37.6746V38.8267C38.9652 38.592 40.7546 38.416 43.1892 38.416C45.8292 38.416 47.7652 38.9733 49.0292 40.0293C50.2026 40.9973 50.9626 42.552 50.9626 44.4C50.9626 46.2773 50.3759 47.832 49.2612 48.888C47.8239 50.3253 45.5652 51 43.0132 51C42.3386 51 41.7226 50.9707 41.2532 50.8827V58.3333ZM43.3359 41.1733C42.3386 41.1733 41.6346 41.2613 41.2559 41.3493V48.0373C41.6932 48.1547 42.2799 48.184 43.0159 48.184C45.7119 48.184 47.3546 46.864 47.3546 44.5467C47.3546 42.3467 45.8292 41.1733 43.3359 41.1733Z" fill="#FFAC72"/>
<path d="M55.5733 58.656C53.8399 58.656 52.2879 58.216 51.2319 57.6293L51.9359 55.0187C52.7573 55.5173 54.3093 56.0453 55.6026 56.0453C57.1866 56.0453 57.8906 55.4 57.8906 54.4613C57.8906 53.4933 57.3039 52.9947 55.5439 52.3787C52.7573 51.4107 51.5839 49.8853 51.6133 48.2133C51.6133 45.6907 53.6933 43.7253 57.0106 43.7253C58.5946 43.7253 59.9706 44.136 60.7946 44.576L60.0906 47.128C59.167 46.6083 58.1288 46.3261 57.0693 46.3067C55.7786 46.3067 55.0746 46.9227 55.0746 47.8027C55.0746 48.712 55.7493 49.152 57.5679 49.7973C60.1493 50.736 61.3519 52.056 61.3813 54.168C61.3813 56.7493 59.3546 58.656 55.5733 58.656Z" fill="#FFAC72"/>
<path fill-rule="evenodd" clip-rule="evenodd" d="M63.0213 24.5547C53.7023 23.5212 44.2976 23.5212 34.9787 24.5547C29.6133 25.1547 25.28 29.3814 24.6507 34.7734C23.5469 44.2257 23.5469 53.7744 24.6507 63.2267C25.28 68.6187 29.6107 72.8454 34.9787 73.4454C44.2978 74.4767 53.7022 74.4767 63.0213 73.4454C68.3867 72.8454 72.72 68.6187 73.3493 63.2267C74.453 53.7744 74.453 44.2257 73.3493 34.7734C72.72 29.3814 68.3893 25.1547 63.0213 24.5547ZM35.4213 28.528C44.4461 27.5272 53.5539 27.5272 62.5787 28.528C66.1253 28.928 68.9653 31.7254 69.3787 35.24C70.4484 44.3822 70.4484 53.6179 69.3787 62.76C69.1649 64.4801 68.3774 66.0779 67.1436 67.2954C65.9097 68.5128 64.3015 69.2787 62.5787 69.4694C53.5539 70.4701 44.4461 70.4701 35.4213 69.4694C33.6985 69.2787 32.0903 68.5128 30.8564 67.2954C29.6225 66.0779 28.8351 64.4801 28.6213 62.76C27.5516 53.6179 27.5516 44.3822 28.6213 35.24C28.8351 33.5199 29.6225 31.9221 30.8564 30.7047C32.0903 29.4873 33.6985 28.7187 35.4213 28.528Z" fill="#FFAC72"/>
<circle cx="49" cy="49" r="47" stroke="#FFAC72" stroke-width="4"/>
</svg>
