<svg width="98" height="98" viewBox="0 0 98 98" fill="none" xmlns="http://www.w3.org/2000/svg">
<path d="M49 22.3333C34.3067 22.3333 22.3334 34.3066 22.3334 48.9999C22.3334 63.6932 34.3067 75.6666 49 75.6666C63.6934 75.6666 75.6667 63.6932 75.6667 48.9999C75.6667 34.3066 63.6934 22.3333 49 22.3333ZM25.0267 48.9999C25.0267 45.5332 25.7734 42.2266 27.1067 39.2399L38.5467 70.5732C30.5467 66.6799 25.0267 58.4932 25.0267 48.9999ZM49 72.9732C46.6534 72.9732 44.3867 72.6266 42.2267 71.9866L49.4267 51.0799L56.7867 71.2666C56.84 71.3732 56.8934 71.5066 56.9467 71.5866C54.4667 72.4932 51.8 72.9732 49 72.9732ZM52.3067 37.7466C53.7467 37.6666 55.0534 37.5066 55.0534 37.5066C56.3334 37.3466 56.2 35.4533 54.8934 35.5333C54.8934 35.5333 51 35.8266 48.4934 35.8266C46.1467 35.8266 42.1734 35.5333 42.1734 35.5333C40.8934 35.4799 40.7334 37.4533 42.04 37.5333C42.04 37.5333 43.2667 37.6933 44.5467 37.7733L48.28 48.0133L43.0267 63.7466L34.3067 37.7466C35.7467 37.6933 37.0534 37.5333 37.0534 37.5333C38.3334 37.3733 38.2 35.4799 36.8934 35.5599C36.8934 35.5599 33 35.8533 30.4934 35.8533C30.04 35.8533 29.5067 35.8533 28.9467 35.8266C33.2667 29.3199 40.6267 25.0266 49 25.0266C55.24 25.0266 60.92 27.3999 65.1867 31.3199C65.08 31.3199 64.9734 31.2933 64.8667 31.2933C62.52 31.2933 60.84 33.3466 60.84 35.5599C60.84 37.5333 61.9867 39.2132 63.1867 41.1866C64.0934 42.7866 65.16 44.8399 65.16 47.7999C65.16 49.8533 64.36 52.2266 63.3467 55.5599L60.9467 63.5599L52.3067 37.7466ZM70.04 37.5066C73.0339 42.9886 73.7699 49.4226 72.0915 55.4391C70.413 61.4556 66.4527 66.5794 61.0534 69.7199L68.3867 48.5466C69.7467 45.1333 70.2 42.3866 70.2 39.9599C70.2 39.0799 70.1467 38.2533 70.04 37.5066Z" fill="#FFAC72"/>
<circle cx="49" cy="49" r="47" stroke="#FFAC72" stroke-width="4"/>
</svg>
