<svg width="98" height="98" viewBox="0 0 98 98" fill="none" xmlns="http://www.w3.org/2000/svg">
<path d="M26.3333 58.7814C27.5333 58.9254 28.4221 59.4747 28.9999 60.4294C29.8693 61.8614 33.0986 67.1654 36.7679 67.1654H42.3333M57.4586 57.7974C58.9217 59.7138 59.6533 61.4347 59.6533 62.96V73M44.6533 58.0427C43.1066 59.7387 42.3341 61.3503 42.3359 62.8774V73" stroke="#FFAC72" stroke-width="4" stroke-linecap="round" stroke-linejoin="round"/>
<path d="M57.4587 57.7973C60.664 57.1307 63.5733 55.9787 65.832 54.288C69.6933 51.3973 71.6667 46.9333 71.6667 42.5253C71.6667 39.432 70.4933 36.544 68.456 34.0987C67.3227 32.736 70.64 23.7733 67.6933 25.1413C64.7467 26.512 60.4267 28.336 58.1627 27.6667C55.7387 26.952 53.096 26.5573 50.3333 26.5573C47.9333 26.5573 45.624 26.8533 43.4693 27.4027C40.3387 28.1973 37.3467 26.4347 34.3333 25.1413C31.32 23.8507 32.9653 33.1627 32.0693 34.2667C30.1227 36.68 29 39.5067 29 42.5253C29 46.9333 31.3867 51.3973 35.248 54.2853C37.8213 56.2107 41.0453 57.44 44.6533 58.0453" stroke="#FFAC72" stroke-width="4" stroke-linecap="round" stroke-linejoin="round"/>
<circle cx="49" cy="49" r="47" stroke="#FFAC72" stroke-width="4"/>
</svg>
