<svg width="64" height="64" viewBox="0 0 64 64" fill="none" xmlns="http://www.w3.org/2000/svg">
<rect width="64" height="64" rx="32" fill="#FFAC72"/>
<path d="M20.924 44C20.233 44 19.6565 43.769 19.1945 43.307C18.7325 42.845 18.501 42.268 18.5 41.576V26.924C18.5 26.233 18.7315 25.6565 19.1945 25.1945C19.6575 24.7325 20.2335 24.501 20.9225 24.5H27.5V22.4225C27.5 21.7325 27.7315 21.156 28.1945 20.693C28.6575 20.23 29.234 19.999 29.924 20H34.0775C34.7675 20 35.344 20.231 35.807 20.693C36.27 21.155 36.501 21.7315 36.5 22.4225V24.5H43.0775C43.7675 24.5 44.3435 24.7315 44.8055 25.1945C45.2675 25.6575 45.499 26.234 45.5 26.924V41.5775C45.5 42.2675 45.2685 42.844 44.8055 43.307C44.3425 43.77 43.7665 44.001 43.0775 44H20.924ZM20.924 42.5H43.0775C43.3075 42.5 43.519 42.404 43.712 42.212C43.905 42.02 44.001 41.808 44 41.576V26.924C44 26.693 43.904 26.481 43.712 26.288C43.52 26.095 43.3085 25.999 43.0775 26H20.9225C20.6925 26 20.481 26.096 20.288 26.288C20.095 26.48 19.999 26.692 20 26.924V41.5775C20 41.8075 20.096 42.019 20.288 42.212C20.48 42.405 20.6915 42.501 20.9225 42.5M29 24.5H35V22.4225C35 22.1925 34.904 21.981 34.712 21.788C34.52 21.595 34.3085 21.499 34.0775 21.5H29.9225C29.6925 21.5 29.481 21.596 29.288 21.788C29.095 21.98 28.999 22.1915 29 22.4225V24.5Z" fill="white"/>
</svg>
