<svg width="414" height="103" viewBox="0 0 414 103" fill="none" xmlns="http://www.w3.org/2000/svg">
<rect width="122" height="103" rx="8" fill="#F7EAE1"/>
<path d="M32.5045 52L44.4085 16.816H49.3525L61.3045 52H56.6005L50.4565 32.32C49.8165 30.304 49.2085 28.336 48.6325 26.416C48.0565 24.464 47.4805 22.464 46.9045 20.416H46.7125C46.1685 22.464 45.5925 24.464 44.9845 26.416C44.4085 28.336 43.8165 30.304 43.2085 32.32L36.9685 52H32.5045ZM38.6965 41.248V37.744H54.9205V41.248H38.6965ZM73.0566 52.624C71.6166 52.624 70.3206 52.336 69.1686 51.76C68.0166 51.184 67.1046 50.352 66.4326 49.264C65.7926 48.144 65.4726 46.8 65.4726 45.232C65.4726 42.384 66.7366 40.208 69.2646 38.704C71.8246 37.168 75.8886 36.096 81.4566 35.488C81.4566 34.368 81.2966 33.312 80.9766 32.32C80.6886 31.296 80.1606 30.48 79.3926 29.872C78.6246 29.232 77.5206 28.912 76.0806 28.912C74.5766 28.912 73.1526 29.216 71.8086 29.824C70.4966 30.4 69.3126 31.024 68.2566 31.696L66.5766 28.672C67.3766 28.16 68.3046 27.648 69.3606 27.136C70.4166 26.592 71.5686 26.144 72.8166 25.792C74.0646 25.44 75.3926 25.264 76.8006 25.264C78.9126 25.264 80.6246 25.712 81.9366 26.608C83.2806 27.504 84.2566 28.752 84.8646 30.352C85.5046 31.92 85.8246 33.792 85.8246 35.968V52H82.2246L81.8406 48.88H81.6966C80.4806 49.904 79.1366 50.784 77.6646 51.52C76.2246 52.256 74.6886 52.624 73.0566 52.624ZM74.3046 49.072C75.5526 49.072 76.7366 48.784 77.8566 48.208C79.0086 47.632 80.2086 46.784 81.4566 45.664V38.416C78.5446 38.736 76.2246 39.2 74.4966 39.808C72.7686 40.384 71.5366 41.104 70.8006 41.968C70.0646 42.8 69.6966 43.792 69.6966 44.944C69.6966 46.448 70.1446 47.52 71.0406 48.16C71.9366 48.768 73.0246 49.072 74.3046 49.072Z" fill="black"/>
<path d="M14.1082 82V70.272H15.6122L19.9002 77.664L21.1642 80.08H21.2442C21.1909 79.4933 21.1429 78.88 21.1002 78.24C21.0575 77.6 21.0362 76.976 21.0362 76.368V70.272H22.4442V82H20.9242L16.6522 74.592L15.3882 72.192H15.3242C15.3562 72.7787 15.3935 73.3813 15.4362 74C15.4789 74.608 15.5002 75.2213 15.5002 75.84V82H14.1082ZM28.9027 82.208C28.1987 82.208 27.5374 82.032 26.9187 81.68C26.3 81.3173 25.804 80.8 25.4307 80.128C25.068 79.4453 24.8867 78.624 24.8867 77.664C24.8867 76.6933 25.068 75.872 25.4307 75.2C25.804 74.5173 26.3 73.9947 26.9187 73.632C27.5374 73.2693 28.1987 73.088 28.9027 73.088C29.436 73.088 29.9427 73.1893 30.4227 73.392C30.9134 73.5947 31.3454 73.8933 31.7187 74.288C32.092 74.6827 32.3854 75.1627 32.5987 75.728C32.812 76.2933 32.9187 76.9387 32.9187 77.664C32.9187 78.624 32.732 79.4453 32.3587 80.128C31.9854 80.8 31.4947 81.3173 30.8867 81.68C30.2787 82.032 29.6174 82.208 28.9027 82.208ZM28.9027 80.992C29.404 80.992 29.8414 80.8533 30.2147 80.576C30.5987 80.2987 30.8974 79.9093 31.1107 79.408C31.324 78.9067 31.4307 78.3253 31.4307 77.664C31.4307 76.992 31.324 76.4053 31.1107 75.904C30.8974 75.4027 30.5987 75.0133 30.2147 74.736C29.8414 74.4587 29.404 74.32 28.9027 74.32C28.4014 74.32 27.9587 74.4587 27.5747 74.736C27.2014 75.0133 26.908 75.4027 26.6947 75.904C26.492 76.4053 26.3907 76.992 26.3907 77.664C26.3907 78.3253 26.492 78.9067 26.6947 79.408C26.908 79.9093 27.2014 80.2987 27.5747 80.576C27.9587 80.8533 28.4014 80.992 28.9027 80.992ZM37.6061 82.208C36.9981 82.208 36.5127 82.0907 36.1501 81.856C35.7874 81.6107 35.5261 81.2693 35.3661 80.832C35.2167 80.3947 35.1421 79.888 35.1421 79.312V74.496H33.8461V73.392L35.2221 73.312L35.3821 70.864H36.5981V73.312H38.9661V74.496H36.5981V79.36C36.5981 79.8827 36.6941 80.2933 36.8861 80.592C37.0887 80.88 37.4407 81.024 37.9421 81.024C38.1021 81.024 38.2727 81.0027 38.4541 80.96C38.6354 80.9067 38.7954 80.848 38.9341 80.784L39.2221 81.888C38.9767 81.9733 38.7154 82.048 38.4381 82.112C38.1607 82.176 37.8834 82.208 37.6061 82.208ZM44.0121 82.208C43.3081 82.208 42.6467 82.032 42.0281 81.68C41.4094 81.3173 40.9134 80.8 40.5401 80.128C40.1774 79.4453 39.9961 78.624 39.9961 77.664C39.9961 76.6933 40.1774 75.872 40.5401 75.2C40.9134 74.5173 41.4094 73.9947 42.0281 73.632C42.6467 73.2693 43.3081 73.088 44.0121 73.088C44.5454 73.088 45.0521 73.1893 45.5321 73.392C46.0227 73.5947 46.4547 73.8933 46.8281 74.288C47.2014 74.6827 47.4947 75.1627 47.7081 75.728C47.9214 76.2933 48.0281 76.9387 48.0281 77.664C48.0281 78.624 47.8414 79.4453 47.4681 80.128C47.0947 80.8 46.6041 81.3173 45.9961 81.68C45.3881 82.032 44.7267 82.208 44.0121 82.208ZM44.0121 80.992C44.5134 80.992 44.9507 80.8533 45.3241 80.576C45.7081 80.2987 46.0067 79.9093 46.2201 79.408C46.4334 78.9067 46.5401 78.3253 46.5401 77.664C46.5401 76.992 46.4334 76.4053 46.2201 75.904C46.0067 75.4027 45.7081 75.0133 45.3241 74.736C44.9507 74.4587 44.5134 74.32 44.0121 74.32C43.5107 74.32 43.0681 74.4587 42.6841 74.736C42.3107 75.0133 42.0174 75.4027 41.8041 75.904C41.6014 76.4053 41.5001 76.992 41.5001 77.664C41.5001 78.3253 41.6014 78.9067 41.8041 79.408C42.0174 79.9093 42.3107 80.2987 42.6841 80.576C43.0681 80.8533 43.5107 80.992 44.0121 80.992ZM57.3093 82.208C56.4773 82.208 55.7093 82.0533 55.0053 81.744C54.312 81.4347 53.7146 81.0133 53.2133 80.48L54.0933 79.456C54.5093 79.8933 55 80.2453 55.5653 80.512C56.1306 80.7787 56.7173 80.912 57.3253 80.912C58.104 80.912 58.7066 80.736 59.1333 80.384C59.5706 80.032 59.7893 79.5733 59.7893 79.008C59.7893 78.592 59.6986 78.2613 59.5173 78.016C59.3466 77.7707 59.112 77.568 58.8133 77.408C58.5253 77.2373 58.1946 77.072 57.8213 76.912L56.1413 76.176C55.7786 76.016 55.4106 75.8133 55.0373 75.568C54.6746 75.3227 54.3706 75.0027 54.1253 74.608C53.88 74.2133 53.7573 73.7333 53.7573 73.168C53.7573 72.56 53.9173 72.0267 54.2373 71.568C54.5573 71.0987 54.9946 70.7307 55.5493 70.464C56.104 70.1973 56.7386 70.064 57.4533 70.064C58.1573 70.064 58.8026 70.1973 59.3893 70.464C59.9866 70.7307 60.488 71.0773 60.8933 71.504L60.1253 72.448C59.7626 72.1173 59.3626 71.856 58.9253 71.664C58.4986 71.4613 58.008 71.36 57.4533 71.36C56.792 71.36 56.2586 71.5147 55.8533 71.824C55.4586 72.1227 55.2613 72.5333 55.2613 73.056C55.2613 73.44 55.3573 73.7547 55.5493 74C55.752 74.2453 56.0026 74.4427 56.3013 74.592C56.6 74.7413 56.904 74.8853 57.2133 75.024L58.8773 75.744C59.3253 75.936 59.7306 76.1653 60.0933 76.432C60.4666 76.6987 60.76 77.0293 60.9733 77.424C61.1866 77.8187 61.2933 78.304 61.2933 78.88C61.2933 79.4987 61.1333 80.064 60.8133 80.576C60.4933 81.0773 60.0346 81.4773 59.4373 81.776C58.84 82.064 58.1306 82.208 57.3093 82.208ZM65.4486 82.208C64.9686 82.208 64.5366 82.112 64.1526 81.92C63.7686 81.728 63.4646 81.4507 63.2406 81.088C63.0272 80.7147 62.9206 80.2667 62.9206 79.744C62.9206 78.7947 63.3419 78.0693 64.1846 77.568C65.0379 77.056 66.3926 76.6987 68.2486 76.496C68.2486 76.1227 68.1952 75.7707 68.0886 75.44C67.9926 75.0987 67.8166 74.8267 67.5606 74.624C67.3046 74.4107 66.9366 74.304 66.4566 74.304C65.9552 74.304 65.4806 74.4053 65.0326 74.608C64.5952 74.8 64.2006 75.008 63.8486 75.232L63.2886 74.224C63.5552 74.0533 63.8646 73.8827 64.2166 73.712C64.5686 73.5307 64.9526 73.3813 65.3686 73.264C65.7846 73.1467 66.2272 73.088 66.6966 73.088C67.4006 73.088 67.9712 73.2373 68.4086 73.536C68.8566 73.8347 69.1819 74.2507 69.3846 74.784C69.5979 75.3067 69.7046 75.9307 69.7046 76.656V82H68.5046L68.3766 80.96H68.3286C67.9232 81.3013 67.4752 81.5947 66.9846 81.84C66.5046 82.0853 65.9926 82.208 65.4486 82.208ZM65.8646 81.024C66.2806 81.024 66.6752 80.928 67.0486 80.736C67.4326 80.544 67.8326 80.2613 68.2486 79.888V77.472C67.2779 77.5787 66.5046 77.7333 65.9286 77.936C65.3526 78.128 64.9419 78.368 64.6966 78.656C64.4512 78.9333 64.3286 79.264 64.3286 79.648C64.3286 80.1493 64.4779 80.5067 64.7766 80.72C65.0752 80.9227 65.4379 81.024 65.8646 81.024ZM72.4642 82V73.312H73.6642L73.8082 74.576H73.8402C74.2562 74.16 74.6935 73.808 75.1522 73.52C75.6215 73.232 76.1549 73.088 76.7522 73.088C77.6695 73.088 78.3415 73.3813 78.7682 73.968C79.1949 74.544 79.4082 75.3867 79.4082 76.496V82H77.9522V76.688C77.9522 75.8667 77.8189 75.2747 77.5522 74.912C77.2962 74.5493 76.8802 74.368 76.3042 74.368C75.8562 74.368 75.4562 74.48 75.1042 74.704C74.7522 74.928 74.3629 75.2587 73.9362 75.696V82H72.4642ZM84.5018 82.208C83.8938 82.208 83.3018 82.096 82.7258 81.872C82.1605 81.6373 81.6751 81.3493 81.2698 81.008L81.9738 80.032C82.3578 80.3413 82.7525 80.592 83.1578 80.784C83.5631 80.976 84.0271 81.072 84.5498 81.072C85.1258 81.072 85.5525 80.944 85.8298 80.688C86.1178 80.4213 86.2618 80.096 86.2618 79.712C86.2618 79.4133 86.1605 79.168 85.9578 78.976C85.7658 78.7733 85.5151 78.6027 85.2058 78.464C84.9071 78.3147 84.5978 78.1813 84.2778 78.064C83.8725 77.904 83.4725 77.728 83.0778 77.536C82.6938 77.3333 82.3738 77.0773 82.1178 76.768C81.8725 76.448 81.7498 76.0427 81.7498 75.552C81.7498 75.0827 81.8671 74.6667 82.1018 74.304C82.3365 73.9307 82.6778 73.6373 83.1258 73.424C83.5738 73.2 84.1125 73.088 84.7418 73.088C85.2751 73.088 85.7711 73.184 86.2298 73.376C86.6991 73.568 87.0991 73.8027 87.4298 74.08L86.7258 74.992C86.4271 74.7787 86.1178 74.5973 85.7978 74.448C85.4885 74.2987 85.1418 74.224 84.7578 74.224C84.2031 74.224 83.7925 74.352 83.5258 74.608C83.2698 74.8533 83.1418 75.1467 83.1418 75.488C83.1418 75.7547 83.2271 75.9787 83.3978 76.16C83.5791 76.3413 83.8138 76.496 84.1018 76.624C84.3898 76.7413 84.6938 76.864 85.0138 76.992C85.3338 77.1093 85.6485 77.2373 85.9578 77.376C86.2778 77.5147 86.5605 77.68 86.8058 77.872C87.0618 78.064 87.2645 78.304 87.4138 78.592C87.5738 78.8693 87.6538 79.216 87.6538 79.632C87.6538 80.1013 87.5311 80.5333 87.2858 80.928C87.0511 81.3227 86.6991 81.6373 86.2298 81.872C85.7711 82.096 85.1951 82.208 84.5018 82.208ZM95.6123 82.208C94.8656 82.208 94.2256 82.0533 93.6923 81.744C93.1696 81.424 92.7323 80.96 92.3803 80.352L93.4363 79.584C93.703 80.064 94.0016 80.4053 94.3323 80.608C94.6736 80.8107 95.0523 80.912 95.4683 80.912C96.1083 80.912 96.583 80.72 96.8923 80.336C97.2016 79.9413 97.3563 79.3013 97.3563 78.416V70.272H98.8443V78.56C98.8443 79.232 98.7323 79.8453 98.5083 80.4C98.2843 80.9547 97.9323 81.3973 97.4523 81.728C96.983 82.048 96.3696 82.208 95.6123 82.208ZM101.999 82V70.272H105.343C106.217 70.272 106.985 70.384 107.647 70.608C108.308 70.8213 108.82 71.1787 109.183 71.68C109.545 72.1813 109.727 72.8587 109.727 73.712C109.727 74.5333 109.545 75.2107 109.183 75.744C108.82 76.2773 108.313 76.6773 107.663 76.944C107.012 77.2 106.26 77.328 105.407 77.328H103.471V82H101.999ZM103.471 76.128H105.215C106.239 76.128 107.001 75.936 107.503 75.552C108.004 75.168 108.255 74.5547 108.255 73.712C108.255 72.8587 107.993 72.272 107.471 71.952C106.959 71.632 106.185 71.472 105.151 71.472H103.471V76.128Z" fill="black"/>
<rect x="146" width="122" height="103" rx="8" fill="#F7EAE1"/>
<path d="M201.484 39.232L196.084 25.24C195.924 24.824 195.756 24.344 195.58 23.8C195.404 23.24 195.236 22.648 195.076 22.024C194.74 23.32 194.396 24.4 194.044 25.264L188.644 39.232H201.484ZM211.18 52H207.58C207.164 52 206.828 51.896 206.572 51.688C206.316 51.48 206.124 51.216 205.996 50.896L202.78 42.592H187.348L184.132 50.896C184.036 51.184 183.852 51.44 183.58 51.664C183.308 51.888 182.972 52 182.572 52H178.972L192.724 17.608H197.428L211.18 52ZM227.873 41.056C225.905 41.12 224.225 41.28 222.833 41.536C221.457 41.776 220.329 42.096 219.449 42.496C218.585 42.896 217.953 43.368 217.553 43.912C217.169 44.456 216.977 45.064 216.977 45.736C216.977 46.376 217.081 46.928 217.289 47.392C217.497 47.856 217.777 48.24 218.129 48.544C218.497 48.832 218.921 49.048 219.401 49.192C219.897 49.32 220.425 49.384 220.985 49.384C221.737 49.384 222.425 49.312 223.049 49.168C223.673 49.008 224.257 48.784 224.801 48.496C225.361 48.208 225.889 47.864 226.385 47.464C226.897 47.064 227.393 46.608 227.873 46.096V41.056ZM214.073 31.12C215.417 29.824 216.865 28.856 218.417 28.216C219.969 27.576 221.689 27.256 223.577 27.256C224.937 27.256 226.145 27.48 227.201 27.928C228.257 28.376 229.145 29 229.865 29.8C230.585 30.6 231.129 31.568 231.497 32.704C231.865 33.84 232.049 35.088 232.049 36.448V52H230.153C229.737 52 229.417 51.936 229.193 51.808C228.969 51.664 228.793 51.392 228.665 50.992L228.185 48.688C227.545 49.28 226.921 49.808 226.312 50.272C225.705 50.72 225.065 51.104 224.393 51.424C223.721 51.728 223.001 51.96 222.233 52.12C221.481 52.296 220.641 52.384 219.713 52.384C218.769 52.384 217.881 52.256 217.049 52C216.217 51.728 215.489 51.328 214.865 50.8C214.257 50.272 213.769 49.608 213.401 48.808C213.049 47.992 212.873 47.032 212.873 45.928C212.873 44.968 213.137 44.048 213.665 43.168C214.193 42.272 215.049 41.48 216.233 40.792C217.417 40.104 218.961 39.544 220.865 39.112C222.769 38.664 225.105 38.408 227.873 38.344V36.448C227.873 34.56 227.465 33.136 226.649 32.176C225.833 31.2 224.641 30.712 223.073 30.712C222.017 30.712 221.129 30.848 220.409 31.12C219.705 31.376 219.089 31.672 218.561 32.008C218.049 32.328 217.601 32.624 217.217 32.896C216.849 33.152 216.481 33.28 216.113 33.28C215.825 33.28 215.577 33.208 215.369 33.064C215.161 32.904 214.985 32.712 214.84 32.488L214.073 31.12Z" fill="black"/>
<path d="M200.054 81.696V83H193.55V71.536H195.094V81.696H200.054ZM205.825 79.352C205.169 79.3733 204.609 79.4267 204.145 79.512C203.686 79.592 203.31 79.6987 203.017 79.832C202.729 79.9653 202.518 80.1227 202.385 80.304C202.257 80.4853 202.193 80.688 202.193 80.912C202.193 81.1253 202.227 81.3093 202.297 81.464C202.366 81.6187 202.459 81.7467 202.577 81.848C202.699 81.944 202.841 82.016 203.001 82.064C203.166 82.1067 203.342 82.128 203.529 82.128C203.779 82.128 204.009 82.104 204.217 82.056C204.425 82.0027 204.619 81.928 204.801 81.832C204.987 81.736 205.163 81.6213 205.329 81.488C205.499 81.3547 205.665 81.2027 205.825 81.032V79.352ZM201.225 76.04C201.673 75.608 202.155 75.2853 202.673 75.072C203.19 74.8587 203.763 74.752 204.393 74.752C204.846 74.752 205.249 74.8267 205.601 74.976C205.953 75.1253 206.249 75.3333 206.489 75.6C206.729 75.8667 206.91 76.1893 207.033 76.568C207.155 76.9467 207.217 77.3627 207.217 77.816V83H206.585C206.446 83 206.339 82.9787 206.265 82.936C206.19 82.888 206.131 82.7973 206.089 82.664L205.929 81.896C205.715 82.0933 205.507 82.2693 205.305 82.424C205.102 82.5733 204.889 82.7013 204.665 82.808C204.441 82.9093 204.201 82.9867 203.945 83.04C203.694 83.0987 203.414 83.128 203.105 83.128C202.79 83.128 202.494 83.0853 202.217 83C201.939 82.9093 201.697 82.776 201.489 82.6C201.286 82.424 201.123 82.2027 201.001 81.936C200.883 81.664 200.825 81.344 200.825 80.976C200.825 80.656 200.913 80.3493 201.089 80.056C201.265 79.7573 201.55 79.4933 201.945 79.264C202.339 79.0347 202.854 78.848 203.489 78.704C204.123 78.5547 204.902 78.4693 205.825 78.448V77.816C205.825 77.1867 205.689 76.712 205.417 76.392C205.145 76.0667 204.747 75.904 204.225 75.904C203.873 75.904 203.577 75.9493 203.337 76.04C203.102 76.1253 202.897 76.224 202.721 76.336C202.55 76.4427 202.401 76.5413 202.273 76.632C202.15 76.7173 202.027 76.76 201.905 76.76C201.809 76.76 201.726 76.736 201.657 76.688C201.587 76.6347 201.529 76.5707 201.481 76.496L201.225 76.04ZM211.764 83.128C211.124 83.128 210.631 82.9493 210.284 82.592C209.943 82.2347 209.772 81.72 209.772 81.048V76.088H208.796C208.711 76.088 208.639 76.064 208.58 76.016C208.522 75.9627 208.492 75.8827 208.492 75.776V75.208L209.82 75.04L210.148 72.536C210.164 72.456 210.199 72.392 210.252 72.344C210.311 72.2907 210.386 72.264 210.476 72.264H211.196V75.056H213.54V76.088H211.196V80.952C211.196 81.2933 211.279 81.5467 211.444 81.712C211.61 81.8773 211.823 81.96 212.084 81.96C212.234 81.96 212.362 81.9413 212.468 81.904C212.58 81.8613 212.676 81.816 212.756 81.768C212.836 81.72 212.903 81.6773 212.956 81.64C213.015 81.5973 213.066 81.576 213.108 81.576C213.183 81.576 213.25 81.6213 213.308 81.712L213.724 82.392C213.479 82.6213 213.183 82.8027 212.836 82.936C212.49 83.064 212.132 83.128 211.764 83.128ZM218.38 74.768C218.972 74.768 219.505 74.8667 219.98 75.064C220.455 75.2613 220.86 75.5413 221.196 75.904C221.532 76.2667 221.788 76.7067 221.964 77.224C222.145 77.736 222.236 78.3093 222.236 78.944C222.236 79.584 222.145 80.16 221.964 80.672C221.788 81.184 221.532 81.6213 221.196 81.984C220.86 82.3467 220.455 82.6267 219.98 82.824C219.505 83.016 218.972 83.112 218.38 83.112C217.783 83.112 217.244 83.016 216.764 82.824C216.289 82.6267 215.884 82.3467 215.548 81.984C215.212 81.6213 214.953 81.184 214.772 80.672C214.596 80.16 214.508 79.584 214.508 78.944C214.508 78.3093 214.596 77.736 214.772 77.224C214.953 76.7067 215.212 76.2667 215.548 75.904C215.884 75.5413 216.289 75.2613 216.764 75.064C217.244 74.8667 217.783 74.768 218.38 74.768ZM218.38 82C219.18 82 219.777 81.7333 220.172 81.2C220.567 80.6613 220.764 79.912 220.764 78.952C220.764 77.9867 220.567 77.2347 220.172 76.696C219.777 76.1573 219.18 75.888 218.38 75.888C217.975 75.888 217.62 75.9573 217.316 76.096C217.017 76.2347 216.767 76.4347 216.564 76.696C216.367 76.9573 216.217 77.28 216.116 77.664C216.02 78.0427 215.972 78.472 215.972 78.952C215.972 79.912 216.169 80.6613 216.564 81.2C216.964 81.7333 217.569 82 218.38 82Z" fill="black"/>
</svg>
