<svg width="414" height="103" viewBox="0 0 414 103" fill="none" xmlns="http://www.w3.org/2000/svg">
<rect width="122" height="103" rx="8" fill="#F7EAE1"/>
<rect x="146" width="122" height="103" rx="8" fill="#F7EAE1"/>
<rect x="292" width="122" height="103" rx="8" fill="#F7EAE1"/>
<path d="M31.0369 51V49.56L35.7409 49.032H36.5569L41.7889 49.56V51H31.0369ZM34.4929 51L46.2049 15.768H48.8929L60.7969 51H56.4769L45.9169 18.6H46.8769L46.6849 19.272L36.5089 51H34.4929ZM39.6769 39.048L39.8689 37.512H54.4609L54.6529 39.048H39.6769ZM50.5249 51V49.56L56.9569 49.032H58.3489L64.5889 49.56V51H50.5249ZM73.9403 51.72C72.0203 51.72 70.4363 51.176 69.1883 50.088C67.9403 49 67.3163 47.464 67.3163 45.48C67.3163 44.232 67.5883 43.128 68.1323 42.168C68.6763 41.176 69.5723 40.296 70.8203 39.528C72.1003 38.76 73.7963 38.072 75.9083 37.464C77.2523 37.048 78.6603 36.648 80.1323 36.264C81.6043 35.88 82.9803 35.544 84.2603 35.256V36.456C82.9803 36.776 81.6843 37.128 80.3723 37.512C79.0603 37.864 77.8603 38.248 76.7723 38.664C74.7243 39.4 73.2683 40.28 72.4043 41.304C71.5723 42.328 71.1563 43.512 71.1563 44.856C71.1563 46.328 71.5563 47.448 72.3563 48.216C73.1883 48.984 74.2763 49.368 75.6203 49.368C76.3563 49.368 77.0763 49.224 77.7803 48.936C78.4843 48.648 79.2843 48.152 80.1803 47.448C81.0763 46.744 82.1323 45.784 83.3483 44.568L83.7803 46.824H82.6283C81.6363 47.88 80.6923 48.776 79.7963 49.512C78.9323 50.248 78.0363 50.792 77.1083 51.144C76.1803 51.528 75.1243 51.72 73.9403 51.72ZM86.7563 51.672C85.3163 51.672 84.2283 51.192 83.4923 50.232C82.7883 49.24 82.3883 47.896 82.2923 46.2V46.056V33.768C82.2923 31.976 82.1003 30.6 81.7163 29.64C81.3323 28.648 80.7403 27.96 79.9403 27.576C79.1403 27.192 78.1003 27 76.8203 27C75.8923 27 74.9643 27.144 74.0363 27.432C73.1083 27.688 72.1163 28.104 71.0603 28.68L73.1243 27.384L72.3563 31.176C72.2283 32.04 71.9563 32.648 71.5403 33C71.1563 33.352 70.6603 33.528 70.0523 33.528C68.9003 33.528 68.1963 32.952 67.9403 31.8C68.4203 29.848 69.5243 28.312 71.2523 27.192C72.9803 26.072 75.1883 25.512 77.8763 25.512C80.6603 25.512 82.7243 26.184 84.0683 27.528C85.4443 28.84 86.1323 30.984 86.1323 33.96V45.816C86.1323 47.32 86.3083 48.344 86.6603 48.888C87.0123 49.4 87.5083 49.656 88.1483 49.656C88.5643 49.656 88.9323 49.576 89.2523 49.416C89.5723 49.224 89.9243 48.92 90.3083 48.504L91.0763 49.224C90.5643 50.056 89.9403 50.664 89.2043 51.048C88.5003 51.464 87.6843 51.672 86.7563 51.672Z" fill="black"/>
<path d="M12.7353 83V82.52L14.4313 82.328H14.7833L16.8473 82.52V83H12.7353ZM14.2713 83V71.72H14.8473L14.8953 77.896V83H14.2713ZM20.0473 71.832V71.352H24.1273V71.832L22.4473 72.008H22.1273L20.0473 71.832ZM21.8873 83.112L14.7033 72.536L14.6713 72.52L14.2873 71.928L12.7193 71.832V71.352H15.5353L22.2873 81.352L22.0153 81.448L21.9833 76.68V71.352H22.5753V83.112H21.8873ZM29.2364 83.24C28.5324 83.24 27.8764 83.0747 27.2684 82.744C26.671 82.4133 26.1857 81.928 25.8124 81.288C25.439 80.6373 25.2524 79.832 25.2524 78.872C25.2524 77.912 25.4444 77.112 25.8284 76.472C26.2124 75.8213 26.7084 75.3307 27.3164 75C27.9244 74.6693 28.5644 74.504 29.2364 74.504C29.9297 74.504 30.5804 74.6693 31.1884 75C31.7964 75.32 32.287 75.8053 32.6604 76.456C33.0444 77.1067 33.2364 77.912 33.2364 78.872C33.2364 79.832 33.0497 80.6373 32.6764 81.288C32.303 81.9387 31.8124 82.4293 31.2044 82.76C30.607 83.08 29.951 83.24 29.2364 83.24ZM29.2364 82.744C30.0364 82.744 30.6604 82.4133 31.1084 81.752C31.567 81.0907 31.7964 80.136 31.7964 78.888C31.7964 77.6507 31.567 76.696 31.1084 76.024C30.6604 75.352 30.0364 75.016 29.2364 75.016C28.447 75.016 27.823 75.352 27.3644 76.024C26.9057 76.696 26.6764 77.6507 26.6764 78.888C26.6764 80.136 26.9057 81.0907 27.3644 81.752C27.823 82.4133 28.447 82.744 29.2364 82.744ZM36.4644 75.336V74.744H39.4244V75.336H36.4644ZM37.7604 83.24C37.0884 83.24 36.5924 83.064 36.2724 82.712C35.9524 82.36 35.7924 81.8267 35.7924 81.112C35.7924 80.856 35.7924 80.6267 35.7924 80.424C35.803 80.2213 35.8084 79.976 35.8084 79.688V75.336H34.2084V74.856L36.1444 74.696L35.8244 74.936L36.3044 72.248H37.1844L37.1204 74.984V75.176V81.112C37.1204 81.6133 37.211 81.976 37.3924 82.2C37.5844 82.424 37.8564 82.536 38.2084 82.536C38.443 82.536 38.651 82.504 38.8324 82.44C39.0137 82.3653 39.211 82.264 39.4244 82.136L39.6644 82.408C39.4404 82.6747 39.1737 82.8773 38.8644 83.016C38.555 83.1653 38.187 83.24 37.7604 83.24ZM44.5958 83.24C43.8918 83.24 43.2358 83.0747 42.6278 82.744C42.0304 82.4133 41.5451 81.928 41.1718 81.288C40.7984 80.6373 40.6118 79.832 40.6118 78.872C40.6118 77.912 40.8038 77.112 41.1878 76.472C41.5718 75.8213 42.0678 75.3307 42.6758 75C43.2838 74.6693 43.9238 74.504 44.5958 74.504C45.2891 74.504 45.9398 74.6693 46.5478 75C47.1558 75.32 47.6464 75.8053 48.0198 76.456C48.4038 77.1067 48.5958 77.912 48.5958 78.872C48.5958 79.832 48.4091 80.6373 48.0358 81.288C47.6624 81.9387 47.1718 82.4293 46.5638 82.76C45.9664 83.08 45.3104 83.24 44.5958 83.24ZM44.5958 82.744C45.3958 82.744 46.0198 82.4133 46.4678 81.752C46.9264 81.0907 47.1558 80.136 47.1558 78.888C47.1558 77.6507 46.9264 76.696 46.4678 76.024C46.0198 75.352 45.3958 75.016 44.5958 75.016C43.8064 75.016 43.1824 75.352 42.7238 76.024C42.2651 76.696 42.0358 77.6507 42.0358 78.888C42.0358 80.136 42.2651 81.0907 42.7238 81.752C43.1824 82.4133 43.8064 82.744 44.5958 82.744ZM57.6927 83.256C57.0314 83.256 56.4021 83.1653 55.8048 82.984C55.2074 82.8027 54.7114 82.584 54.3168 82.328L54.4128 79.944H55.0688L55.5648 82.568L54.8448 82.232L54.7488 81.704C55.2714 82.088 55.7354 82.3493 56.1408 82.488C56.5461 82.616 57.0314 82.68 57.5968 82.68C58.4608 82.68 59.1594 82.488 59.6928 82.104C60.2261 81.7093 60.4928 81.128 60.4928 80.36C60.4928 79.9653 60.4181 79.6293 60.2688 79.352C60.1301 79.064 59.8954 78.8027 59.5648 78.568C59.2341 78.3227 58.7754 78.0827 58.1888 77.848L57.5008 77.576C56.5514 77.1707 55.8314 76.7013 55.3408 76.168C54.8501 75.624 54.6048 74.9467 54.6048 74.136C54.6048 73.464 54.7701 72.904 55.1008 72.456C55.4421 71.9973 55.8901 71.656 56.4448 71.432C57.0101 71.1973 57.6394 71.08 58.3328 71.08C58.9408 71.08 59.4741 71.16 59.9328 71.32C60.3914 71.4693 60.8181 71.6827 61.2128 71.96L61.1488 74.232H60.4608L59.9648 71.704L60.7168 72.056L60.7648 72.568C60.3488 72.2373 59.9648 72.008 59.6128 71.88C59.2714 71.7413 58.8714 71.672 58.4128 71.672C57.6661 71.672 57.0474 71.8533 56.5568 72.216C56.0768 72.568 55.8368 73.0907 55.8368 73.784C55.8368 74.392 56.0128 74.8773 56.3648 75.24C56.7274 75.6027 57.2234 75.9173 57.8528 76.184L58.5728 76.472C59.3834 76.8133 60.0181 77.1547 60.4768 77.496C60.9461 77.8267 61.2768 78.1947 61.4688 78.6C61.6608 78.9947 61.7568 79.464 61.7568 80.008C61.7568 80.6693 61.5861 81.2453 61.2448 81.736C60.9141 82.2267 60.4448 82.6053 59.8368 82.872C59.2288 83.128 58.5141 83.256 57.6927 83.256ZM67.3949 83.24C66.6162 83.24 65.9175 83.08 65.2989 82.76C64.6802 82.44 64.1949 81.9547 63.8429 81.304C63.4909 80.6533 63.3149 79.848 63.3149 78.888C63.3149 77.992 63.4962 77.2187 63.8589 76.568C64.2322 75.9067 64.7175 75.4 65.3149 75.048C65.9122 74.6853 66.5629 74.504 67.2669 74.504C67.9602 74.504 68.5522 74.6533 69.0429 74.952C69.5442 75.24 69.9229 75.6347 70.1789 76.136C70.4455 76.6373 70.5789 77.2027 70.5789 77.832C70.5789 78.216 70.5415 78.536 70.4669 78.792H63.9389V78.296H68.5789C68.8669 78.296 69.0589 78.2213 69.1549 78.072C69.2509 77.9227 69.2989 77.688 69.2989 77.368C69.2989 76.6853 69.1175 76.1253 68.7549 75.688C68.3922 75.24 67.8855 75.016 67.2349 75.016C66.7655 75.016 66.3389 75.1653 65.9549 75.464C65.5709 75.752 65.2669 76.1733 65.0429 76.728C64.8189 77.272 64.7069 77.928 64.7069 78.696C64.7069 79.56 64.8349 80.2693 65.0909 80.824C65.3575 81.3787 65.7202 81.7893 66.1789 82.056C66.6375 82.312 67.1602 82.44 67.7469 82.44C68.3122 82.44 68.8029 82.344 69.2189 82.152C69.6455 81.9493 70.0242 81.656 70.3549 81.272L70.6109 81.496C70.2589 82.0293 69.8162 82.456 69.2829 82.776C68.7495 83.0853 68.1202 83.24 67.3949 83.24ZM71.9529 83V82.552L73.7289 82.36H74.3849L76.1929 82.552V83H71.9529ZM73.2809 83C73.2915 82.744 73.2969 82.3973 73.2969 81.96C73.3075 81.5227 73.3129 81.0693 73.3129 80.6C73.3235 80.12 73.3289 79.6987 73.3289 79.336V78.376C73.3289 77.8213 73.3235 77.3307 73.3129 76.904C73.3129 76.4773 73.3022 76.0667 73.2809 75.672L71.8729 75.608V75.192L74.3369 74.552L74.5449 74.68L74.6409 76.936V76.952V79.336C74.6409 79.6987 74.6409 80.12 74.6409 80.6C74.6515 81.0693 74.6569 81.5227 74.6569 81.96C74.6675 82.3973 74.6782 82.744 74.6889 83H73.2809ZM74.6249 77.896L74.2889 77.064H74.5769C74.7369 76.5413 74.9609 76.0933 75.2489 75.72C75.5369 75.336 75.8569 75.0373 76.2089 74.824C76.5715 74.6107 76.9395 74.504 77.3129 74.504C77.6222 74.504 77.8942 74.568 78.1289 74.696C78.3635 74.8133 78.5182 74.9893 78.5929 75.224C78.5822 75.512 78.5129 75.736 78.3849 75.896C78.2569 76.056 78.0489 76.136 77.7609 76.136C77.5582 76.136 77.3769 76.088 77.2169 75.992C77.0569 75.8853 76.8862 75.7307 76.7049 75.528L76.3369 75.176L77.0569 75.208C76.5022 75.3573 76.0275 75.6507 75.6329 76.088C75.2489 76.5147 74.9129 77.1173 74.6249 77.896ZM79.3755 83V82.552L81.1355 82.376H81.6315L83.3275 82.552V83H79.3755ZM80.7035 83C80.7142 82.744 80.7248 82.3973 80.7355 81.96C80.7462 81.5227 80.7515 81.0693 80.7515 80.6C80.7622 80.12 80.7675 79.6987 80.7675 79.336V78.376C80.7675 77.832 80.7622 77.3413 80.7515 76.904C80.7408 76.4667 80.7248 76.0507 80.7035 75.656L79.2795 75.592V75.176L81.9195 74.552L82.1115 74.68L82.0635 76.92V79.336C82.0635 79.6987 82.0635 80.12 82.0635 80.6C82.0742 81.0693 82.0848 81.5227 82.0955 81.96C82.1062 82.3973 82.1168 82.744 82.1275 83H80.7035ZM81.2955 72.52C81.0395 72.52 80.8208 72.44 80.6395 72.28C80.4582 72.1093 80.3675 71.8907 80.3675 71.624C80.3675 71.3573 80.4582 71.1387 80.6395 70.968C80.8208 70.7973 81.0395 70.712 81.2955 70.712C81.5408 70.712 81.7542 70.7973 81.9355 70.968C82.1275 71.1387 82.2235 71.3573 82.2235 71.624C82.2235 71.8907 82.1275 72.1093 81.9355 72.28C81.7542 72.44 81.5408 72.52 81.2955 72.52ZM84.576 83V82.552L86.432 82.376H87.072L89.04 82.552V83H84.576ZM86 83C86.0213 82.392 86.032 81.784 86.032 81.176C86.0427 80.5573 86.048 79.944 86.048 79.336V75.336H84.528V74.856L86.528 74.68L86.048 74.92V74.824C86.1013 73.8107 86.24 72.9947 86.464 72.376C86.6987 71.7467 87.0293 71.2347 87.456 70.84C87.7867 70.5307 88.1387 70.3067 88.512 70.168C88.8853 70.0187 89.2693 69.944 89.664 69.944C90.048 69.944 90.3893 70.0133 90.688 70.152C90.9973 70.2907 91.1947 70.4987 91.28 70.776C91.2693 70.968 91.1947 71.128 91.056 71.256C90.9173 71.3733 90.7253 71.432 90.48 71.432C90.2773 71.432 90.08 71.3787 89.888 71.272C89.7067 71.1547 89.504 70.9787 89.28 70.744L88.848 70.296V70.152H89.504V70.28C89.2053 70.312 88.9227 70.4187 88.656 70.6C88.3893 70.7707 88.1707 70.9893 88 71.256C87.8293 71.5227 87.6907 71.8213 87.584 72.152C87.4773 72.4827 87.408 72.888 87.376 73.368C87.344 73.8373 87.344 74.4187 87.376 75.112V79.336C87.376 79.944 87.3813 80.5573 87.392 81.176C87.4027 81.784 87.4133 82.392 87.424 83H86ZM86.72 75.336V74.744H89.84V75.336H86.72ZM95.3849 85.272C95.0329 85.272 94.7289 85.2133 94.4729 85.096C94.2275 84.9893 94.0889 84.8027 94.0569 84.536C94.0995 84.312 94.2009 84.152 94.3609 84.056C94.5209 83.96 94.7129 83.912 94.9369 83.912C95.1609 83.912 95.3529 83.944 95.5129 84.008C95.6729 84.0827 95.8649 84.216 96.0889 84.408L96.4889 84.84V84.936H96.2009V84.824C96.5209 84.44 96.7502 83.9173 96.8889 83.256C97.0382 82.5947 97.1129 81.6933 97.1129 80.552C97.1129 79.9973 97.1129 79.4427 97.1129 78.888C97.1129 78.3333 97.1075 77.7147 97.0969 77.032C97.0969 76.3493 97.0915 75.5493 97.0809 74.632C97.0809 73.7147 97.0702 72.6213 97.0489 71.352H98.5049C98.4835 72.2267 98.4675 73.112 98.4569 74.008C98.4569 74.904 98.4569 75.816 98.4569 76.744V80.12C98.4569 80.92 98.4195 81.576 98.3449 82.088C98.2809 82.5893 98.1795 83.0053 98.0409 83.336C97.9022 83.6667 97.7262 83.96 97.5129 84.216C97.2142 84.5893 96.8835 84.856 96.5209 85.016C96.1582 85.1867 95.7795 85.272 95.3849 85.272ZM95.1769 71.832V71.352H100.153V71.832L97.8969 72.008H97.5289L95.1769 71.832ZM101.567 83V82.52L103.775 82.328H104.207L106.495 82.52V83H101.567ZM103.199 83C103.22 82.104 103.231 81.208 103.231 80.312C103.231 79.416 103.231 78.5147 103.231 77.608V76.744C103.231 75.8373 103.231 74.936 103.231 74.04C103.231 73.1333 103.22 72.2373 103.199 71.352H104.687C104.676 72.2373 104.665 73.1333 104.655 74.04C104.655 74.936 104.655 75.8373 104.655 76.744V77.864C104.655 78.6533 104.655 79.4853 104.655 80.36C104.665 81.224 104.676 82.104 104.687 83H103.199ZM103.951 78.232V77.704H105.583C106.393 77.704 107.049 77.5813 107.551 77.336C108.063 77.08 108.431 76.728 108.655 76.28C108.889 75.832 109.007 75.3147 109.007 74.728C109.007 73.8 108.761 73.096 108.271 72.616C107.78 72.1253 107.017 71.88 105.983 71.88H103.951V71.352H106.095C107.556 71.352 108.633 71.656 109.327 72.264C110.031 72.872 110.383 73.6987 110.383 74.744C110.383 75.3947 110.217 75.9867 109.887 76.52C109.567 77.0427 109.055 77.4587 108.351 77.768C107.647 78.0773 106.735 78.232 105.615 78.232H103.951ZM101.567 71.832V71.352H103.951V72.008H103.775L101.567 71.832Z" fill="black"/>
<path d="M178.505 52L190.409 16.816H195.353L207.305 52H202.601L196.457 32.32C195.817 30.304 195.209 28.336 194.633 26.416C194.057 24.464 193.481 22.464 192.905 20.416H192.713C192.169 22.464 191.593 24.464 190.984 26.416C190.409 28.336 189.817 30.304 189.209 32.32L182.969 52H178.505ZM184.697 41.248V37.744H200.921V41.248H184.697ZM219.057 52.624C217.617 52.624 216.321 52.336 215.169 51.76C214.017 51.184 213.105 50.352 212.433 49.264C211.793 48.144 211.473 46.8 211.473 45.232C211.473 42.384 212.737 40.208 215.265 38.704C217.825 37.168 221.889 36.096 227.457 35.488C227.457 34.368 227.297 33.312 226.977 32.32C226.689 31.296 226.161 30.48 225.393 29.872C224.625 29.232 223.521 28.912 222.081 28.912C220.577 28.912 219.153 29.216 217.809 29.824C216.497 30.4 215.313 31.024 214.257 31.696L212.577 28.672C213.377 28.16 214.305 27.648 215.361 27.136C216.417 26.592 217.569 26.144 218.817 25.792C220.065 25.44 221.393 25.264 222.801 25.264C224.913 25.264 226.625 25.712 227.937 26.608C229.281 27.504 230.257 28.752 230.865 30.352C231.505 31.92 231.825 33.792 231.825 35.968V52H228.225L227.841 48.88H227.697C226.481 49.904 225.137 50.784 223.665 51.52C222.225 52.256 220.689 52.624 219.057 52.624ZM220.305 49.072C221.553 49.072 222.737 48.784 223.857 48.208C225.009 47.632 226.209 46.784 227.457 45.664V38.416C224.545 38.736 222.225 39.2 220.497 39.808C218.769 40.384 217.537 41.104 216.801 41.968C216.065 42.8 215.697 43.792 215.697 44.944C215.697 46.448 216.145 47.52 217.041 48.16C217.937 48.768 219.025 49.072 220.305 49.072Z" fill="black"/>
<path d="M328.917 52H324.485L337.303 17.0909H341.667L354.485 52H350.053L339.621 22.6136H339.349L328.917 52ZM330.553 38.3636H348.417V42.1136H330.553V38.3636ZM367.082 52.6136C365.423 52.6136 363.917 52.3011 362.565 51.6761C361.212 51.0398 360.138 50.125 359.343 48.9318C358.548 47.7273 358.15 46.2727 358.15 44.5682C358.15 43.0682 358.445 41.8523 359.036 40.9205C359.627 39.9773 360.417 39.2386 361.406 38.7045C362.394 38.1705 363.485 37.7727 364.678 37.5114C365.883 37.2386 367.093 37.0227 368.309 36.8636C369.9 36.6591 371.19 36.5057 372.178 36.4034C373.178 36.2898 373.906 36.1023 374.36 35.8409C374.826 35.5795 375.059 35.125 375.059 34.4773V34.3409C375.059 32.6591 374.599 31.3523 373.678 30.4205C372.769 29.4886 371.388 29.0227 369.536 29.0227C367.616 29.0227 366.11 29.4432 365.019 30.2841C363.928 31.125 363.161 32.0227 362.718 32.9773L358.9 31.6136C359.582 30.0227 360.491 28.7841 361.627 27.8977C362.775 27 364.025 26.375 365.377 26.0227C366.741 25.6591 368.082 25.4773 369.4 25.4773C370.241 25.4773 371.207 25.5795 372.298 25.7841C373.4 25.9773 374.462 26.3807 375.485 26.9943C376.519 27.608 377.377 28.5341 378.059 29.7727C378.741 31.0114 379.082 32.6705 379.082 34.75V52H375.059V48.4545H374.854C374.582 49.0227 374.127 49.6307 373.491 50.2784C372.854 50.9261 372.008 51.4773 370.951 51.9318C369.894 52.3864 368.604 52.6136 367.082 52.6136ZM367.695 49C369.286 49 370.627 48.6875 371.718 48.0625C372.82 47.4375 373.65 46.6307 374.207 45.642C374.775 44.6534 375.059 43.6136 375.059 42.5227V38.8409C374.888 39.0455 374.513 39.233 373.934 39.4034C373.366 39.5625 372.707 39.7045 371.957 39.8295C371.218 39.9432 370.496 40.0455 369.792 40.1364C369.099 40.2159 368.536 40.2841 368.104 40.3409C367.059 40.4773 366.082 40.6989 365.173 41.0057C364.275 41.3011 363.548 41.75 362.991 42.3523C362.445 42.9432 362.173 43.75 362.173 44.7727C362.173 46.1705 362.69 47.2273 363.724 47.9432C364.769 48.6477 366.093 49 367.695 49Z" fill="black"/>
<path d="M160.108 83V71.272H161.612L165.9 78.664L167.164 81.08H167.244C167.191 80.4933 167.143 79.88 167.1 79.24C167.058 78.6 167.036 77.976 167.036 77.368V71.272H168.444V83H166.924L162.652 75.592L161.388 73.192H161.324C161.356 73.7787 161.394 74.3813 161.436 75C161.479 75.608 161.5 76.2213 161.5 76.84V83H160.108ZM174.903 83.208C174.199 83.208 173.537 83.032 172.919 82.68C172.3 82.3173 171.804 81.8 171.431 81.128C171.068 80.4453 170.887 79.624 170.887 78.664C170.887 77.6933 171.068 76.872 171.431 76.2C171.804 75.5173 172.3 74.9947 172.919 74.632C173.537 74.2693 174.199 74.088 174.903 74.088C175.436 74.088 175.943 74.1893 176.423 74.392C176.913 74.5947 177.345 74.8933 177.719 75.288C178.092 75.6827 178.385 76.1627 178.599 76.728C178.812 77.2933 178.919 77.9387 178.919 78.664C178.919 79.624 178.732 80.4453 178.359 81.128C177.985 81.8 177.495 82.3173 176.887 82.68C176.279 83.032 175.617 83.208 174.903 83.208ZM174.903 81.992C175.404 81.992 175.841 81.8533 176.215 81.576C176.599 81.2987 176.897 80.9093 177.111 80.408C177.324 79.9067 177.431 79.3253 177.431 78.664C177.431 77.992 177.324 77.4053 177.111 76.904C176.897 76.4027 176.599 76.0133 176.215 75.736C175.841 75.4587 175.404 75.32 174.903 75.32C174.401 75.32 173.959 75.4587 173.575 75.736C173.201 76.0133 172.908 76.4027 172.695 76.904C172.492 77.4053 172.391 77.992 172.391 78.664C172.391 79.3253 172.492 79.9067 172.695 80.408C172.908 80.9093 173.201 81.2987 173.575 81.576C173.959 81.8533 174.401 81.992 174.903 81.992ZM183.606 83.208C182.998 83.208 182.513 83.0907 182.15 82.856C181.787 82.6107 181.526 82.2693 181.366 81.832C181.217 81.3947 181.142 80.888 181.142 80.312V75.496H179.846V74.392L181.222 74.312L181.382 71.864H182.598V74.312H184.966V75.496H182.598V80.36C182.598 80.8827 182.694 81.2933 182.886 81.592C183.089 81.88 183.441 82.024 183.942 82.024C184.102 82.024 184.273 82.0027 184.454 81.96C184.635 81.9067 184.795 81.848 184.934 81.784L185.222 82.888C184.977 82.9733 184.715 83.048 184.438 83.112C184.161 83.176 183.883 83.208 183.606 83.208ZM190.012 83.208C189.308 83.208 188.647 83.032 188.028 82.68C187.409 82.3173 186.913 81.8 186.54 81.128C186.177 80.4453 185.996 79.624 185.996 78.664C185.996 77.6933 186.177 76.872 186.54 76.2C186.913 75.5173 187.409 74.9947 188.028 74.632C188.647 74.2693 189.308 74.088 190.012 74.088C190.545 74.088 191.052 74.1893 191.532 74.392C192.023 74.5947 192.455 74.8933 192.828 75.288C193.201 75.6827 193.495 76.1627 193.708 76.728C193.921 77.2933 194.028 77.9387 194.028 78.664C194.028 79.624 193.841 80.4453 193.468 81.128C193.095 81.8 192.604 82.3173 191.996 82.68C191.388 83.032 190.727 83.208 190.012 83.208ZM190.012 81.992C190.513 81.992 190.951 81.8533 191.324 81.576C191.708 81.2987 192.007 80.9093 192.22 80.408C192.433 79.9067 192.54 79.3253 192.54 78.664C192.54 77.992 192.433 77.4053 192.22 76.904C192.007 76.4027 191.708 76.0133 191.324 75.736C190.951 75.4587 190.513 75.32 190.012 75.32C189.511 75.32 189.068 75.4587 188.684 75.736C188.311 76.0133 188.017 76.4027 187.804 76.904C187.601 77.4053 187.5 77.992 187.5 78.664C187.5 79.3253 187.601 79.9067 187.804 80.408C188.017 80.9093 188.311 81.2987 188.684 81.576C189.068 81.8533 189.511 81.992 190.012 81.992ZM203.309 83.208C202.477 83.208 201.709 83.0533 201.005 82.744C200.312 82.4347 199.715 82.0133 199.213 81.48L200.093 80.456C200.509 80.8933 201 81.2453 201.565 81.512C202.131 81.7787 202.717 81.912 203.325 81.912C204.104 81.912 204.707 81.736 205.133 81.384C205.571 81.032 205.789 80.5733 205.789 80.008C205.789 79.592 205.699 79.2613 205.517 79.016C205.347 78.7707 205.112 78.568 204.813 78.408C204.525 78.2373 204.195 78.072 203.821 77.912L202.141 77.176C201.779 77.016 201.411 76.8133 201.037 76.568C200.675 76.3227 200.371 76.0027 200.125 75.608C199.88 75.2133 199.757 74.7333 199.757 74.168C199.757 73.56 199.917 73.0267 200.237 72.568C200.557 72.0987 200.995 71.7307 201.549 71.464C202.104 71.1973 202.739 71.064 203.453 71.064C204.157 71.064 204.803 71.1973 205.389 71.464C205.987 71.7307 206.488 72.0773 206.893 72.504L206.125 73.448C205.763 73.1173 205.363 72.856 204.925 72.664C204.499 72.4613 204.008 72.36 203.453 72.36C202.792 72.36 202.259 72.5147 201.853 72.824C201.459 73.1227 201.261 73.5333 201.261 74.056C201.261 74.44 201.357 74.7547 201.549 75C201.752 75.2453 202.003 75.4427 202.301 75.592C202.6 75.7413 202.904 75.8853 203.213 76.024L204.877 76.744C205.325 76.936 205.731 77.1653 206.093 77.432C206.467 77.6987 206.76 78.0293 206.973 78.424C207.187 78.8187 207.293 79.304 207.293 79.88C207.293 80.4987 207.133 81.064 206.813 81.576C206.493 82.0773 206.035 82.4773 205.437 82.776C204.84 83.064 204.131 83.208 203.309 83.208ZM211.449 83.208C210.969 83.208 210.537 83.112 210.153 82.92C209.769 82.728 209.465 82.4507 209.241 82.088C209.027 81.7147 208.921 81.2667 208.921 80.744C208.921 79.7947 209.342 79.0693 210.185 78.568C211.038 78.056 212.393 77.6987 214.249 77.496C214.249 77.1227 214.195 76.7707 214.089 76.44C213.993 76.0987 213.817 75.8267 213.561 75.624C213.305 75.4107 212.937 75.304 212.457 75.304C211.955 75.304 211.481 75.4053 211.033 75.608C210.595 75.8 210.201 76.008 209.849 76.232L209.289 75.224C209.555 75.0533 209.865 74.8827 210.217 74.712C210.569 74.5307 210.953 74.3813 211.369 74.264C211.785 74.1467 212.227 74.088 212.697 74.088C213.401 74.088 213.971 74.2373 214.409 74.536C214.857 74.8347 215.182 75.2507 215.385 75.784C215.598 76.3067 215.705 76.9307 215.705 77.656V83H214.505L214.377 81.96H214.329C213.923 82.3013 213.475 82.5947 212.985 82.84C212.505 83.0853 211.993 83.208 211.449 83.208ZM211.865 82.024C212.281 82.024 212.675 81.928 213.049 81.736C213.433 81.544 213.833 81.2613 214.249 80.888V78.472C213.278 78.5787 212.505 78.7333 211.929 78.936C211.353 79.128 210.942 79.368 210.697 79.656C210.451 79.9333 210.329 80.264 210.329 80.648C210.329 81.1493 210.478 81.5067 210.777 81.72C211.075 81.9227 211.438 82.024 211.865 82.024ZM218.464 83V74.312H219.664L219.808 75.576H219.84C220.256 75.16 220.694 74.808 221.152 74.52C221.622 74.232 222.155 74.088 222.752 74.088C223.67 74.088 224.342 74.3813 224.768 74.968C225.195 75.544 225.408 76.3867 225.408 77.496V83H223.952V77.688C223.952 76.8667 223.819 76.2747 223.552 75.912C223.296 75.5493 222.88 75.368 222.304 75.368C221.856 75.368 221.456 75.48 221.104 75.704C220.752 75.928 220.363 76.2587 219.936 76.696V83H218.464ZM230.502 83.208C229.894 83.208 229.302 83.096 228.726 82.872C228.16 82.6373 227.675 82.3493 227.27 82.008L227.974 81.032C228.358 81.3413 228.752 81.592 229.158 81.784C229.563 81.976 230.027 82.072 230.55 82.072C231.126 82.072 231.552 81.944 231.83 81.688C232.118 81.4213 232.262 81.096 232.262 80.712C232.262 80.4133 232.16 80.168 231.958 79.976C231.766 79.7733 231.515 79.6027 231.206 79.464C230.907 79.3147 230.598 79.1813 230.278 79.064C229.872 78.904 229.472 78.728 229.078 78.536C228.694 78.3333 228.374 78.0773 228.118 77.768C227.872 77.448 227.75 77.0427 227.75 76.552C227.75 76.0827 227.867 75.6667 228.102 75.304C228.336 74.9307 228.678 74.6373 229.126 74.424C229.574 74.2 230.112 74.088 230.742 74.088C231.275 74.088 231.771 74.184 232.23 74.376C232.699 74.568 233.099 74.8027 233.43 75.08L232.726 75.992C232.427 75.7787 232.118 75.5973 231.798 75.448C231.488 75.2987 231.142 75.224 230.758 75.224C230.203 75.224 229.792 75.352 229.526 75.608C229.27 75.8533 229.142 76.1467 229.142 76.488C229.142 76.7547 229.227 76.9787 229.398 77.16C229.579 77.3413 229.814 77.496 230.102 77.624C230.39 77.7413 230.694 77.864 231.014 77.992C231.334 78.1093 231.648 78.2373 231.958 78.376C232.278 78.5147 232.56 78.68 232.806 78.872C233.062 79.064 233.264 79.304 233.414 79.592C233.574 79.8693 233.654 80.216 233.654 80.632C233.654 81.1013 233.531 81.5333 233.286 81.928C233.051 82.3227 232.699 82.6373 232.23 82.872C231.771 83.096 231.195 83.208 230.502 83.208ZM241.612 83.208C240.866 83.208 240.226 83.0533 239.692 82.744C239.17 82.424 238.732 81.96 238.38 81.352L239.436 80.584C239.703 81.064 240.002 81.4053 240.332 81.608C240.674 81.8107 241.052 81.912 241.468 81.912C242.108 81.912 242.583 81.72 242.892 81.336C243.202 80.9413 243.356 80.3013 243.356 79.416V71.272H244.844V79.56C244.844 80.232 244.732 80.8453 244.508 81.4C244.284 81.9547 243.932 82.3973 243.452 82.728C242.983 83.048 242.37 83.208 241.612 83.208ZM247.999 83V71.272H251.343C252.217 71.272 252.985 71.384 253.647 71.608C254.308 71.8213 254.82 72.1787 255.183 72.68C255.545 73.1813 255.727 73.8587 255.727 74.712C255.727 75.5333 255.545 76.2107 255.183 76.744C254.82 77.2773 254.313 77.6773 253.663 77.944C253.012 78.2 252.26 78.328 251.407 78.328H249.471V83H247.999ZM249.471 77.128H251.215C252.239 77.128 253.001 76.936 253.503 76.552C254.004 76.168 254.255 75.5547 254.255 74.712C254.255 73.8587 253.993 73.272 253.471 72.952C252.959 72.632 252.185 72.472 251.151 72.472H249.471V77.128Z" fill="black"/>
<path d="M339.029 71.3636V83H337.62V71.3636H339.029ZM343.013 77.75V83H341.673V74.2727H342.968V75.6364H343.082C343.286 75.1932 343.597 74.8371 344.013 74.5682C344.43 74.2955 344.968 74.1591 345.627 74.1591C346.218 74.1591 346.735 74.2803 347.178 74.5227C347.621 74.7614 347.966 75.125 348.212 75.6136C348.459 76.0985 348.582 76.7121 348.582 77.4545V83H347.241V77.5455C347.241 76.8598 347.063 76.3258 346.707 75.9432C346.351 75.5568 345.862 75.3636 345.241 75.3636C344.813 75.3636 344.43 75.4564 344.093 75.642C343.76 75.8277 343.496 76.0985 343.303 76.4545C343.11 76.8106 343.013 77.2424 343.013 77.75ZM354.827 74.2727V75.4091H350.305V74.2727H354.827ZM351.623 72.1818H352.964V80.5C352.964 80.8788 353.019 81.1629 353.129 81.3523C353.242 81.5379 353.386 81.6629 353.56 81.7273C353.738 81.7879 353.926 81.8182 354.123 81.8182C354.271 81.8182 354.392 81.8106 354.487 81.7955C354.581 81.7765 354.657 81.7614 354.714 81.75L354.987 82.9545C354.896 82.9886 354.769 83.0227 354.606 83.0568C354.443 83.0947 354.237 83.1136 353.987 83.1136C353.608 83.1136 353.237 83.0322 352.873 82.8693C352.513 82.7064 352.214 82.4583 351.975 82.125C351.74 81.7917 351.623 81.3712 351.623 80.8636V72.1818ZM360.41 83.1818C359.569 83.1818 358.844 82.9962 358.234 82.625C357.628 82.25 357.16 81.7273 356.83 81.0568C356.504 80.3826 356.342 79.5985 356.342 78.7045C356.342 77.8106 356.504 77.0227 356.83 76.3409C357.16 75.6553 357.618 75.1212 358.205 74.7386C358.796 74.3523 359.486 74.1591 360.273 74.1591C360.728 74.1591 361.177 74.2348 361.62 74.3864C362.063 74.5379 362.467 74.7841 362.83 75.125C363.194 75.4621 363.484 75.9091 363.7 76.4659C363.915 77.0227 364.023 77.7083 364.023 78.5227V79.0909H357.296V77.9318H362.66C362.66 77.4394 362.561 77 362.364 76.6136C362.171 76.2273 361.895 75.9223 361.535 75.6989C361.179 75.4754 360.758 75.3636 360.273 75.3636C359.739 75.3636 359.277 75.4962 358.887 75.7614C358.501 76.0227 358.203 76.3636 357.995 76.7841C357.787 77.2045 357.683 77.6553 357.683 78.1364V78.9091C357.683 79.5682 357.796 80.1269 358.023 80.5852C358.254 81.0398 358.575 81.3864 358.984 81.625C359.393 81.8598 359.868 81.9773 360.41 81.9773C360.762 81.9773 361.08 81.928 361.364 81.8295C361.652 81.7273 361.9 81.5758 362.109 81.375C362.317 81.1705 362.478 80.9167 362.592 80.6136L363.887 80.9773C363.751 81.4167 363.522 81.803 363.2 82.1364C362.878 82.4659 362.48 82.7235 362.006 82.9091C361.533 83.0909 361.001 83.1818 360.41 83.1818ZM366.063 83V74.2727H367.359V75.5909H367.45C367.609 75.1591 367.897 74.8087 368.313 74.5398C368.73 74.2708 369.2 74.1364 369.722 74.1364C369.821 74.1364 369.944 74.1383 370.092 74.142C370.239 74.1458 370.351 74.1515 370.427 74.1591V75.5227C370.381 75.5114 370.277 75.4943 370.114 75.4716C369.955 75.4451 369.787 75.4318 369.609 75.4318C369.184 75.4318 368.806 75.5208 368.472 75.6989C368.143 75.8731 367.881 76.1155 367.688 76.4261C367.499 76.733 367.404 77.0833 367.404 77.4773V83H366.063Z" fill="black"/>
</svg>
